<svg width="135" height="31" viewBox="0 0 135 31" fill="none" xmlns="http://www.w3.org/2000/svg">
<path d="M37.1434 14.7293C39.1962 14.7293 40.574 15.6572 41.4176 16.8102V0.388246C41.4176 0.0789297 41.0521 -0.117908 40.799 0.0789301L20.5247 14.898H21.059C23.1679 14.898 24.2365 16.2478 24.2365 17.71C24.2365 18.8629 23.646 19.7065 22.8305 20.072C22.6899 20.1283 22.6899 20.3251 22.8305 20.3814C23.7585 20.775 24.4333 21.7592 24.4333 22.9402C24.4333 24.6274 23.3367 25.9491 21.2277 25.9491H15.4632C15.3507 25.9491 15.2382 25.8647 15.2382 25.7241V18.7504L0.137912 29.8015C-0.115166 30.0264 -0.00268757 30.4201 0.334749 30.4201H41.0521C41.2489 30.4201 41.3895 30.2795 41.3895 30.0827V24.4868C40.2929 25.4991 38.8587 26.1459 37.1153 26.1459C33.8534 26.1459 31.2102 23.8963 31.2102 20.4376C31.2383 16.9508 33.9097 14.7293 37.1434 14.7293ZM29.0731 25.7522C29.0731 25.8647 28.9887 25.9491 28.8762 25.9491H26.936C26.8235 25.9491 26.7392 25.8647 26.7392 25.7522V15.0949C26.7392 14.9824 26.8235 14.898 26.936 14.898H28.8762C28.9887 14.898 29.0731 14.9824 29.0731 15.0949V25.7522Z" fill="white"/>
<path d="M17.8252 19.2847H20.5528C21.3402 19.2847 21.8463 18.8348 21.8463 18.1318C21.8463 17.4569 21.3402 16.9789 20.5528 16.9789H17.7127C17.6565 16.9789 17.6003 17.0351 17.6003 17.0914V19.0879C17.6003 19.2003 17.7127 19.2847 17.8252 19.2847Z" fill="white"/>
<path d="M17.8252 23.8964H20.6653C21.537 23.8964 22.0713 23.4183 22.0713 22.631C22.0713 21.928 21.5651 21.3656 20.6653 21.3656H17.8252C17.7127 21.3656 17.6003 21.45 17.6003 21.5906V23.6714C17.6003 23.7839 17.7127 23.8964 17.8252 23.8964Z" fill="white"/>
<path d="M39.6461 18.0756C39.1118 17.3726 38.212 16.8102 37.1434 16.8102C35.1188 16.8102 33.6566 18.3568 33.6566 20.4376C33.6566 22.5185 35.1188 24.0651 37.1434 24.0651C38.0714 24.0651 38.9431 23.6714 39.4211 23.2777C39.4492 23.2496 39.4774 23.1934 39.4774 23.1371V22.0686C39.4774 21.9842 39.393 21.8998 39.3086 21.8998H36.806C36.6654 21.8998 36.581 21.7874 36.581 21.6749V20.1002C36.581 19.9596 36.6935 19.8752 36.806 19.8752H41.4457V17.3726L39.9554 18.188C39.8429 18.2162 39.7023 18.1599 39.6461 18.0756Z" fill="white"/>
<path d="M43.1611 20.4376C43.1611 17.0351 45.6075 14.7293 48.7569 14.7293C50.8096 14.7293 52.1313 15.7697 52.9186 17.0351C52.9749 17.1195 52.9467 17.2601 52.8342 17.2882L51.5689 17.9631C51.4845 18.0193 51.372 17.9912 51.3439 17.9068C50.8096 17.0632 49.8254 16.4446 48.7569 16.4446C46.6479 16.4446 45.0732 18.1037 45.0732 20.4376C45.0732 22.7434 46.6479 24.4306 48.7569 24.4306C49.8254 24.4306 50.8096 23.812 51.3439 22.9684C51.4001 22.884 51.4845 22.8559 51.5689 22.9121L52.8342 23.5589C52.9467 23.6151 52.9749 23.7276 52.9186 23.8401C52.1031 25.1055 50.7815 26.174 48.7569 26.174C45.6075 26.1459 43.1611 23.812 43.1611 20.4376Z" fill="white"/>
<path d="M54.0153 20.4376C54.0153 17.6819 55.59 15.5448 57.952 14.9261C61.9731 13.8576 65.6568 17.6256 64.7851 21.8155C64.2508 24.4025 62.1981 26.174 59.4705 26.174C56.2648 26.1459 54.0153 23.7276 54.0153 20.4376ZM62.9854 20.4376C62.9854 18.1599 61.5795 16.4446 59.4424 16.4446C57.2771 16.4446 55.8993 18.1599 55.8993 20.4376C55.8993 22.7153 57.2771 24.4306 59.4424 24.4306C61.6076 24.4306 62.9854 22.6872 62.9854 20.4376Z" fill="white"/>
<path d="M76.3704 25.8084V17.4006L73.0242 25.8647C73.0242 25.8928 72.9679 25.9209 72.9398 25.9209H72.2368C72.2087 25.9209 72.1525 25.8928 72.1525 25.8647L68.7781 17.4006V25.8084C68.7781 25.8928 68.7219 25.949 68.6375 25.949H66.9503C66.866 25.949 66.8097 25.8928 66.8097 25.8084V15.0105C66.8097 14.9261 66.866 14.8699 66.9503 14.8699H69.3686C69.4811 14.8699 69.5655 14.9261 69.6217 15.0386L72.5743 22.6309L75.4987 15.0386C75.5268 14.9261 75.6393 14.8699 75.7518 14.8699H78.1701C78.2544 14.8699 78.3107 14.9261 78.3107 15.0105V25.8084C78.3107 25.8928 78.2544 25.949 78.1701 25.949H76.4829C76.4548 25.949 76.3704 25.8928 76.3704 25.8084Z" fill="white"/>
<path d="M95.4918 25.7522V15.0948C95.4918 14.9824 95.5762 14.898 95.6887 14.898H102.859C102.972 14.898 103.056 14.9824 103.056 15.0948V16.3884C103.056 16.5008 102.972 16.5852 102.859 16.5852H97.6289C97.5164 16.5852 97.4321 16.6696 97.4321 16.782V19.2284C97.4321 19.3409 97.5164 19.4253 97.6289 19.4253H102.747C102.859 19.4253 102.944 19.5096 102.944 19.6221V20.9156C102.944 21.0281 102.859 21.1125 102.747 21.1125H97.6289C97.5164 21.1125 97.4321 21.1968 97.4321 21.3093V23.9807C97.4321 24.0932 97.5164 24.1775 97.6289 24.1775H102.859C102.972 24.1775 103.056 24.2619 103.056 24.3743V25.6679C103.056 25.7803 102.972 25.8647 102.859 25.8647H95.6887C95.5762 25.9491 95.4918 25.8647 95.4918 25.7522Z" fill="white"/>
<path d="M112.054 25.8366L109.72 21.8998C109.692 21.8436 109.608 21.8155 109.552 21.8155H107.921C107.808 21.8155 107.724 21.8998 107.724 22.0123V25.7522C107.724 25.8647 107.64 25.949 107.527 25.949H106.009C105.896 25.949 105.812 25.8647 105.812 25.7522V15.0948C105.812 14.9824 105.896 14.898 106.009 14.898H110.676C112.87 14.898 114.304 16.304 114.304 18.3567C114.304 20.1845 113.179 21.2249 111.942 21.5343C111.801 21.5624 111.745 21.703 111.801 21.8436C112.251 22.5747 113.657 24.8243 114.191 25.6397C114.276 25.7803 114.191 25.949 114.023 25.949H112.251C112.167 25.949 112.111 25.9209 112.054 25.8366ZM112.307 18.3286C112.307 17.2601 111.52 16.5852 110.423 16.5852H107.949C107.836 16.5852 107.752 16.6696 107.752 16.782V19.9033C107.752 20.0158 107.836 20.1002 107.949 20.1002H110.423C111.52 20.1002 112.307 19.4253 112.307 18.3286Z" fill="white"/>
<path d="M127.408 25.7522V15.0948C127.408 14.9824 127.492 14.898 127.605 14.898H134.803C134.916 14.898 135 14.9824 135 15.0948V16.4165C135 16.529 134.916 16.6133 134.803 16.6133H129.545C129.432 16.6133 129.348 16.6977 129.348 16.8101V19.2847C129.348 19.3972 129.432 19.4815 129.545 19.4815H134.663C134.775 19.4815 134.859 19.5659 134.859 19.6784V21C134.859 21.1125 134.775 21.1968 134.663 21.1968H129.545C129.432 21.1968 129.348 21.2812 129.348 21.3937V24.0932C129.348 24.2056 129.432 24.29 129.545 24.29H134.803C134.916 24.29 135 24.3743 135 24.4868V25.8085C135 25.9209 134.916 26.0053 134.803 26.0053H127.605C127.492 25.9491 127.408 25.8647 127.408 25.7522Z" fill="white"/>
<path d="M115.71 20.3813C115.71 16.9789 118.156 14.673 121.306 14.673C123.358 14.673 124.68 15.7135 125.467 16.9788C125.524 17.0632 125.496 17.2038 125.383 17.2319L124.118 17.9068C124.033 17.963 123.921 17.9349 123.893 17.8506C123.358 17.007 122.374 16.3883 121.306 16.3883C119.197 16.3883 117.622 18.0474 117.622 20.3813C117.622 22.6872 119.197 24.3743 121.306 24.3743C122.374 24.3743 123.358 23.7557 123.893 22.9121C123.949 22.8277 124.033 22.7996 124.118 22.8559L125.383 23.5026C125.496 23.5589 125.524 23.6713 125.467 23.7838C124.652 25.0492 123.33 26.1178 121.306 26.1178C118.156 26.0896 115.71 23.7838 115.71 20.3813Z" fill="white"/>
<path d="M90.7115 25.8084V17.4006L87.3652 25.8647C87.3652 25.8928 87.309 25.9209 87.2809 25.9209H86.5779C86.5498 25.9209 86.4935 25.8928 86.4935 25.8647L83.1192 17.4006V25.8084C83.1192 25.8928 83.0629 25.949 82.9786 25.949H81.2914C81.207 25.949 81.1508 25.8928 81.1508 25.8084V15.0105C81.1508 14.9261 81.207 14.8699 81.2914 14.8699H83.7097C83.8222 14.8699 83.9065 14.9261 83.9628 15.0386L86.9153 22.6309L89.8398 15.0386C89.8679 14.9261 89.9804 14.8699 90.0928 14.8699H92.5111C92.5955 14.8699 92.6517 14.9261 92.6517 15.0105V25.8084C92.6517 25.8928 92.5955 25.949 92.5111 25.949H90.824C90.7677 25.949 90.7115 25.8928 90.7115 25.8084Z" fill="white"/>
</svg>
