<svg width="94" height="20" viewBox="0 0 94 20" fill="none" xmlns="http://www.w3.org/2000/svg">
<g clip-path="url(#clip0_1032_6515)">
<mask id="mask0_1032_6515" style="mask-type:luminance" maskUnits="userSpaceOnUse" x="0" y="0" width="94" height="20">
<path d="M94 0H0V20H94V0Z" fill="white"/>
</mask>
<g mask="url(#mask0_1032_6515)">
<path d="M17.491 5.62448C17.4919 6.46358 17.3051 7.29194 16.9439 8.04895C16.5827 8.80597 16.0564 9.47254 15.4039 9.9994L0.396418 1.47731C0.339104 1.44448 0.28597 1.40507 0.23791 1.3594C0.162687 1.28567 0.102985 1.19761 0.0620895 1.1006C0.021194 1.00328 0 0.898806 0 0.793433C0 0.582985 0.0835821 0.381194 0.232239 0.232537C0.380895 0.0835821 0.582686 0 0.793134 0H11.8693C13.3603 0 14.7901 0.592537 15.8445 1.64746C16.8988 2.70209 17.491 4.13283 17.491 5.62448Z" fill="white"/>
<path d="M17.4913 14.3734C17.4916 15.1122 17.3462 15.8439 17.0638 16.5263C16.7814 17.209 16.3674 17.8293 15.8453 18.3517C15.3232 18.874 14.7032 19.2884 14.0211 19.5711C13.339 19.854 12.6077 19.9994 11.8695 19.9994H0.793392C0.636377 19.9976 0.483542 19.9496 0.353989 19.8609C0.224736 19.7722 0.124139 19.6472 0.06593 19.5015C0.00742254 19.3558 -0.00660728 19.1961 0.02593 19.0424C0.0581688 18.889 0.135184 18.7484 0.247422 18.6385C0.292198 18.5937 0.342348 18.5546 0.396676 18.5221L6.30294 15.1684L15.4029 10C16.0551 10.5269 16.5814 11.1931 16.9429 11.9499C17.3044 12.7066 17.4916 13.5349 17.4913 14.3734Z" fill="white"/>
<path d="M15.4035 9.99936L6.30232 15.1689L0.396353 18.5226C0.339637 18.5543 0.287099 18.5928 0.240234 18.6378C2.49217 16.3271 3.75127 13.2265 3.74859 9.99936C3.75277 6.7716 2.49396 3.67041 0.241428 1.35938C0.289487 1.40504 0.342622 1.44445 0.400234 1.47729L15.4035 9.99936Z" fill="white"/>
<path d="M29.7911 7.33316C32.3858 7.33316 33.8517 9.40659 33.8517 11.9182C33.8517 14.4295 32.3858 16.4871 29.7911 16.4871C28.4428 16.4871 27.4117 15.9477 26.8419 15.0325L26.6067 16.2809H24.9834V4.23047H26.9926V8.68062C27.4816 7.93346 28.4428 7.33316 29.7911 7.33316ZM29.3864 14.7164C30.9028 14.7164 31.8464 13.4866 31.8464 11.9182C31.8464 10.3167 30.9028 9.10241 29.3864 9.10241C27.8702 9.10241 26.9252 10.314 26.9252 11.9182C26.9252 13.4877 27.8532 14.7164 29.3864 14.7164Z" fill="white"/>
<path d="M40.9122 12.6797V7.53906H42.9172V12.5779C42.9172 14.826 41.8904 16.4896 39.0587 16.4896C36.2274 16.4896 35.2002 14.8206 35.2002 12.5779V7.53906H37.2056V12.6797C37.2056 14.0445 37.8453 14.7188 39.056 14.7188C40.2671 14.7188 40.9122 14.0445 40.9122 12.6797Z" fill="white"/>
<path d="M44.5224 4.83924C44.5158 4.66312 44.5456 4.4876 44.6101 4.32372C44.6746 4.15984 44.7722 4.01089 44.897 3.88671C45.0218 3.76253 45.171 3.66551 45.3352 3.60163C45.4994 3.53805 45.6752 3.50909 45.851 3.51686C46.6125 3.51686 47.1609 4.06551 47.1609 4.84581C47.1609 5.62611 46.6125 6.13805 45.851 6.13805C45.0895 6.13805 44.5224 5.59984 44.5224 4.83924Z" fill="white"/>
<path d="M80.2978 4.83898C80.2909 4.66346 80.3208 4.48853 80.3847 4.32495C80.4488 4.16167 80.5458 4.01301 80.67 3.88913C80.7942 3.76495 80.9426 3.66764 81.1059 3.60346C81.2694 3.53958 81.4444 3.50973 81.6196 3.51659C82.3811 3.51659 82.9297 4.06525 82.9297 4.84555C82.9297 5.62585 82.3811 6.13779 81.6196 6.13779C80.8581 6.13779 80.2978 5.59958 80.2978 4.83898Z" fill="white"/>
<path d="M76.4395 15.0656C76.4326 14.89 76.4619 14.7151 76.5261 14.5515C76.5899 14.3879 76.6872 14.2393 76.8111 14.1151C76.9353 13.9909 77.084 13.8936 77.2472 13.8297C77.4108 13.7656 77.5858 13.7363 77.7613 13.7432C78.5228 13.7432 79.0711 14.2918 79.0711 15.0656C79.0711 15.8393 78.5228 16.359 77.7613 16.359C76.9998 16.359 76.4395 15.8273 76.4395 15.0656Z" fill="white"/>
<path d="M46.8452 7.53516H44.8398V16.2847H46.8452V7.53516Z" fill="white"/>
<path d="M48.8506 16.2851V4.23047H50.8556V16.2877L48.8506 16.2851Z" fill="white"/>
<path d="M59.1292 4.23047H61.1345V16.2877H59.5151L59.2799 15.0391C58.7247 15.9504 57.6936 16.494 56.3321 16.494C53.753 16.494 52.2871 14.4203 52.2871 11.9248C52.2871 9.42928 53.753 7.33973 56.3321 7.33973C57.6963 7.33973 58.6402 7.9454 59.1292 8.68719V4.23047ZM56.7497 9.1051C55.2336 9.1051 54.2898 10.3191 54.2898 11.9209C54.2898 13.4892 55.2336 14.7191 56.7497 14.7191C58.2659 14.7191 59.2098 13.4892 59.2098 11.9209C59.2124 10.314 58.2859 9.10241 56.7524 9.10241L56.7497 9.1051Z" fill="white"/>
<path d="M70.9244 13.8941C70.3017 15.4613 68.8516 16.4899 66.948 16.4899C64.3044 16.4899 62.5859 14.5168 62.5859 11.9037C62.5859 9.35803 64.3388 7.33594 66.9337 7.33594C69.5286 7.33594 71.231 9.30759 71.231 11.8705C71.2394 12.0798 71.2212 12.289 71.177 12.4935H64.5555C64.7062 13.8768 65.6 14.7696 66.9985 14.7696C67.9594 14.7696 68.7513 14.2974 69.1215 13.4219L70.9244 13.8941ZM64.5886 11.0111H69.2403C69.071 9.79714 68.2292 8.97057 66.931 8.97057C65.6328 8.97057 64.791 9.81415 64.5886 11.0111Z" fill="white"/>
<path d="M77.3615 9.34058C77.2107 9.31939 77.0588 9.30805 76.9065 9.30596C75.491 9.30596 74.6489 10.0481 74.6489 11.734V16.2863H72.6436V7.5379H74.263L74.4967 8.75074C74.8167 8.19522 75.5543 7.45312 77.0758 7.45312C77.1591 7.45312 77.3615 7.47043 77.3615 7.47043V9.34058Z" fill="white"/>
<path d="M82.6203 7.53516H80.6152V16.2847H82.6203V7.53516Z" fill="white"/>
<path d="M84.0518 11.921C84.0518 9.45983 85.8047 7.33594 88.5847 7.33594C91.3647 7.33594 93.1345 9.45983 93.1345 11.921C93.1345 14.3822 91.3832 16.4899 88.5847 16.4899C85.7862 16.4899 84.0518 14.3822 84.0518 11.921ZM88.5847 14.7192C90.0518 14.7192 91.1292 13.6069 91.1292 11.921C91.1292 10.2347 90.0518 9.1055 88.5847 9.1055C87.1172 9.1055 86.0545 10.2174 86.0545 11.921C86.0545 13.6243 87.1357 14.7192 88.5847 14.7192Z" fill="white"/>
</g>
</g>
<defs>
<clipPath id="clip0_1032_6515">
<rect width="94" height="20" fill="white"/>
</clipPath>
</defs>
</svg>
