<svg width="137" height="33" viewBox="0 0 137 33" fill="none" xmlns="http://www.w3.org/2000/svg">
<path d="M47.4575 20.1088C45.1995 20.1088 43.9537 18.6807 44.2651 16.6351C44.6155 14.5509 46.3285 13.1614 48.5476 13.1614C49.7155 13.1614 50.7667 13.7018 51.3896 14.5123L53.5698 12.7368C52.4018 11.4246 50.7278 10.7684 48.9369 10.7684C45.2774 10.7684 42.085 13.2 41.5399 16.6351C40.9949 20.1088 43.3308 22.5018 47.0293 22.5018C48.898 22.5018 50.7667 21.7298 52.4018 20.4561L50.8446 18.6807C49.7155 19.6842 48.5476 20.1088 47.4575 20.1088ZM62.0958 10.8842C62.0958 10.8842 61.6286 10.807 61.5897 10.807C61.0835 10.7298 60.5385 10.7684 60.0324 10.807C59.5652 10.8456 59.098 10.9228 58.6309 11.0772C58.2415 11.193 57.8133 11.3474 57.4629 11.5789L57.5408 11.0386H54.8934L53.1026 22.2316H55.7499L56.8011 15.7088C56.84 15.3228 56.9957 14.9754 57.1904 14.6667C57.3851 14.3579 57.6576 14.0877 57.969 13.8947C58.2805 13.6632 58.5919 13.5088 58.9423 13.393C59.2927 13.2772 59.6431 13.2 60.0324 13.1614C60.5385 13.1228 61.0835 13.1614 61.5897 13.2772H61.6286C61.7065 13.2772 62.0958 10.8842 62.0958 10.8842ZM71.3615 11.7333C70.6218 11.1158 69.4928 10.7684 68.1691 10.7684C64.8599 10.7684 61.8622 13.1228 61.2782 16.5965C60.7332 20.0702 63.0301 22.4246 66.2225 22.4246C67.663 22.4246 68.8699 22.2316 69.8821 21.5368L69.8042 22.1544H72.218L73.9699 11.0386H71.4783L71.3615 11.7333ZM70.8164 16.5965C70.466 18.7193 68.8699 20.186 66.8065 20.186C64.7042 20.186 63.4973 18.6421 63.8477 16.5579C64.1981 14.4737 65.8721 13.007 67.9355 13.007C69.9989 13.0456 71.1279 14.4737 70.8164 16.5965ZM86.1944 11.0386L86.7005 7.87368L83.6638 10.0351L83.5081 11.0772H80.0821L80.4325 8.95439C80.6272 7.95088 81.7172 7.98947 81.7172 7.98947H83.002L83.3913 5.67368H81.9119H81.5615C77.9409 5.67368 77.8241 8.45263 77.8241 8.45263L77.5905 9.76491L77.3959 11.0772H77.1623L74.2035 13.393H77.0065L75.2157 24.7018H77.9409L79.7317 13.3544H83.1577L81.7562 22.2316H84.4425L85.844 13.3544H89.1921L89.5814 11.0386H86.1944ZM93.3967 16.6351C93.9417 13.2 97.0952 10.7684 100.794 10.7684C102.585 10.7684 104.259 11.4632 105.427 12.7368L103.246 14.5123C102.623 13.7018 101.572 13.1614 100.404 13.1614C98.1853 13.1614 96.4723 14.5895 96.1219 16.6351C95.8105 18.6807 97.0563 20.1088 99.3143 20.1088C100.404 20.1088 101.572 19.6842 102.701 18.6807L104.259 20.4561C102.623 21.7684 100.755 22.5018 98.886 22.5018C95.1876 22.5018 92.8517 20.1088 93.3967 16.6351ZM124.931 15.4386L123.88 22.2316H121.233L122.284 15.6316C122.556 14.0877 121.7 13.1614 120.182 13.1614C118.585 13.1614 116.989 14.1263 116.756 15.7088L115.704 22.2316H113.057L114.108 15.6316C114.342 14.1263 113.446 13.2 112.006 13.1614C110.527 13.2386 108.814 14.1649 108.58 15.7088L107.529 22.2316H104.882L106.672 11.0386H109.32L109.242 11.5789C110.137 11.0386 111.149 10.807 112.434 10.7684H112.668C114.303 10.7684 115.627 11.4246 116.327 12.5439C117.417 11.4246 119.092 10.7684 120.766 10.7684C123.646 10.7684 125.398 12.6596 124.931 15.4386ZM124.814 20.8807L126.45 18.8737C127.345 19.5684 129.058 20.1088 130.498 20.1088C131.822 20.1088 133.146 19.8386 133.302 18.9509C133.418 18.2561 132.134 18.0246 130.693 17.793C127.695 17.2912 126.177 16.6737 126.488 14.4351C126.956 11.6175 129.876 10.807 132.289 10.807C134.002 10.807 135.793 11.386 137 12.1965L135.365 14.2035C134.431 13.6246 133.224 13.2 131.861 13.2C130.265 13.2 129.33 13.6632 129.214 14.3965C129.136 14.8982 129.564 15.0912 131.433 15.4C134.158 15.8632 136.416 16.2877 135.988 18.8737C135.637 21.2281 133.224 22.5404 130.07 22.5404C128.318 22.5018 126.06 21.8842 124.814 20.8807ZM29.7826 0H3.50384C1.55726 0 0 1.54386 0 3.47368V29.5263C0 31.4561 1.55726 33 3.50384 33H29.7826C31.6903 33 33.2864 31.4561 33.2864 29.5263V3.47368C33.2864 1.54386 31.7292 0 29.7826 0ZM16.5848 20.1088C17.6749 20.1088 18.8429 19.6842 19.9719 18.6807L21.5291 20.4561C19.894 21.7684 18.0253 22.5018 16.1566 22.5018C12.4581 22.5018 10.1222 20.0702 10.6672 16.6351C11.2123 13.2 14.3657 10.7684 18.0642 10.7684C19.8551 10.7684 21.5291 11.4632 22.6971 12.7368L20.5169 14.5123C19.894 13.7018 18.8429 13.1614 17.6749 13.1614C15.4558 13.1614 13.7428 14.5895 13.3924 16.6351C13.081 18.6807 14.3268 20.1088 16.5848 20.1088Z" fill="white"/>
</svg>
