<svg width="107" height="28" viewBox="0 0 107 28" fill="none" xmlns="http://www.w3.org/2000/svg">
<g clip-path="url(#clip0_1032_6544)">
<mask id="mask0_1032_6544" style="mask-type:luminance" maskUnits="userSpaceOnUse" x="0" y="0" width="107" height="28">
<path d="M107 0H0V28H107V0Z" fill="white"/>
</mask>
<g mask="url(#mask0_1032_6544)">
<path d="M65.7 11.9992V21.9992H62.9V20.6992C61.9 22.1992 60.6 22.2992 59.8 22.2992C56.7 22.2992 54.7 19.8992 54.7 16.9992C54.7 13.9992 56.7 11.6992 59.6 11.6992C60.4 11.6992 61.9 11.7992 62.8 13.2992V11.9992H65.7ZM57.7 16.9992C57.7 18.5992 58.8 19.7992 60.5 19.7992C62.1 19.7992 63.3 18.5992 63.3 16.9992C63.3 15.3992 62.2 14.1992 60.5 14.1992C58.9 14.1992 57.7 15.3992 57.7 16.9992ZM71.2 14.3992V21.9992H68.4V14.3992H67.3V11.9992H68.4V8.59922H71.2V11.9992H73.1V14.3992H71.2ZM79.7 14.3992C79 13.7992 78.4 13.6992 78.1 13.6992C77.4 13.6992 77 13.9992 77 14.4992C77 14.7992 77.1 15.0992 77.9 15.3992L78.6 15.5992C79.4 15.8992 80.6 16.1992 81.1 16.9992C81.4 17.3992 81.6 17.9992 81.6 18.6992C81.6 19.5992 81.3 20.4992 80.5 21.1992C79.7 21.8992 78.7 22.2992 77.5 22.2992C75.4 22.2992 74.3 21.2992 73.6 20.5992L75.1 18.8992C75.7 19.4992 76.5 20.0992 77.3 20.0992C78.1 20.0992 78.7 19.6992 78.7 18.9992C78.7 18.3992 78.2 18.0992 77.8 17.9992L77.2 17.7992C76.5 17.4992 75.7 17.1992 75.1 16.5992C74.6 16.0992 74.3 15.4992 74.3 14.6992C74.3 13.6992 74.8 12.8992 75.3 12.3992C76.1 11.7992 77.1 11.6992 77.9 11.6992C78.6 11.6992 79.8 11.7992 81.1 12.7992L79.7 14.3992ZM85.8 13.2992C86.8 11.8992 88.2 11.6992 89 11.6992C91.9 11.6992 93.9 13.9992 93.9 16.9992C93.9 19.9992 91.9 22.2992 88.9 22.2992C88.3 22.2992 86.8 22.1992 85.7 20.6992V21.9992H83V5.19922H85.8V13.2992ZM85.5 16.9992C85.5 18.5992 86.6 19.7992 88.3 19.7992C89.9 19.7992 91.1 18.5992 91.1 16.9992C91.1 15.3992 90 14.1992 88.3 14.1992C86.6 14.1992 85.5 15.3992 85.5 16.9992ZM98.5 20.4992L93.7 11.9992H97L100.1 17.6992L102.9 11.9992H106.1L98.1 27.2992H94.9L98.5 20.4992ZM54 13.6992H47V16.4992H50.7C50.1 18.3992 48.7 19.6992 46.1 19.6992C43.2 19.6992 41.1 17.2992 41.1 14.3992C41.1 11.4992 43.1 8.99922 46 8.99922C47.6 8.99922 49.2 9.79922 50.2 11.0992L52.5 9.59922C51 7.49922 48.6 6.29922 46 6.29922C41.6 6.29922 38 9.89922 38 14.3992C38 18.8992 41.4 22.4992 46 22.4992C50.6 22.4992 54 18.8992 54 14.3992C54.1 14.0992 54 13.8992 54 13.6992Z" fill="white"/>
<path d="M14 0C21.7 0 28 6.3 28 14C28 21.7 21.7 28 14 28C6.3 28 0 21.7 0 14C0 6.3 6.3 0 14 0ZM3.00195 14.2021L3 14.2002C3.00005 16.9001 4.10025 19.6999 6.2002 21.7998C8.3002 23.8998 11.1004 24.9 13.9004 25L13.7998 24.9004L3 14.0996C3 14.1337 3.00163 14.1681 3.00195 14.2021ZM14 3C8.80012 3 4.39993 6.69977 3.2998 11.5996L16.5 24.7998C20.5499 23.7873 23.8171 20.4971 24.7393 16.3701C24.9105 15.606 25 14.8127 25 14H18V16H22.7998C22.0998 19 19.9 21.5 17 22.5L5.5 11C6.8 7.5 10.1 5 14 5C16.8123 5 19.361 6.31822 21.0693 8.37793C21.1833 8.51538 21.294 8.65592 21.4004 8.7998L22.9004 7.5C20.9004 4.8 17.7 3 14 3Z" fill="white"/>
</g>
</g>
<defs>
<clipPath id="clip0_1032_6544">
<rect width="107" height="28" fill="white"/>
</clipPath>
</defs>
</svg>
