<svg width="150" height="30" viewBox="0 0 150 30" fill="none" xmlns="http://www.w3.org/2000/svg">
<path d="M18.7285 29.9275L26.2497 28.0403C26.2497 28.0403 23.0115 5.93543 22.9909 5.78379C22.9702 5.63215 22.839 5.54799 22.7301 5.53883C22.622 5.52966 20.5044 5.49717 20.5044 5.49717C20.5044 5.49717 19.2138 4.23153 18.7285 3.75244V29.9275Z" fill="white"/>
<path d="M17.9101 3.49998C17.9101 3.49998 17.5776 3.60413 17.0205 3.77827C16.9273 3.47332 16.7903 3.09838 16.5947 2.72177C15.9642 1.50696 15.0408 0.864563 13.9251 0.862896H13.9209C13.8434 0.862896 13.7666 0.870395 13.689 0.877061C13.656 0.837067 13.623 0.797907 13.5884 0.759579C13.1023 0.234661 12.4792 -0.0211319 11.7324 0.00136454C10.2915 0.0430247 8.85645 1.09369 7.69287 2.96007C6.87423 4.2732 6.25118 5.92294 6.07458 7.20024C4.41997 7.71766 3.26299 8.07927 3.23741 8.0876C2.40227 8.35256 2.37586 8.37839 2.26693 9.17326C2.18523 9.774 0 26.8347 0 26.8347L18.1297 30V3.46249C18.0405 3.46832 17.9605 3.48499 17.9101 3.49998ZM13.7237 4.80895C12.764 5.1089 11.7167 5.43635 10.6662 5.76463C10.9616 4.62231 11.522 3.48499 12.2102 2.73927C12.466 2.46181 12.8242 2.15269 13.2484 1.97606C13.647 2.81592 13.7336 4.0049 13.7237 4.80895ZM11.7605 0.969546C12.0988 0.962048 12.3835 1.03704 12.627 1.19868C12.2375 1.40281 11.8611 1.6961 11.5079 2.07854C10.5928 3.07005 9.8913 4.60898 9.61155 6.09374C8.73927 6.3662 7.88597 6.63366 7.10035 6.87862C7.59632 4.54149 9.53645 1.03454 11.7605 0.969546ZM8.95713 14.2833C9.05451 15.8406 13.1122 16.1805 13.34 19.8283C13.519 22.6978 11.8323 24.6608 9.40194 24.8158C6.48472 25.0016 4.87881 23.2636 4.87881 23.2636L5.49691 20.6081C5.49691 20.6081 7.11355 21.8396 8.40752 21.7571C9.25257 21.703 9.55461 21.0089 9.52407 20.5182C9.39699 18.4868 6.09273 18.6068 5.88395 15.269C5.70817 12.4602 7.53525 9.61403 11.5665 9.3574C13.1196 9.25825 13.9152 9.65902 13.9152 9.65902L12.9934 13.141C12.9934 13.141 11.9651 12.6685 10.7462 12.746C8.95796 12.8602 8.93898 13.9983 8.95713 14.2833ZM14.6818 4.50983C14.6711 3.77327 14.5844 2.74843 14.2444 1.86274C15.3379 2.07187 15.8759 3.32085 16.1037 4.06573C15.682 4.19654 15.2017 4.34652 14.6818 4.50983Z" fill="white"/>
<path d="M40.25 19.8187H43.6873V16.1528H49.3152V19.8187H52.7403V10.1813H49.3152V13.5881H43.6873V10.1813H40.25V19.8187Z" fill="white"/>
<path d="M58.6094 19.8187H62.0467V16.2176L66.8637 10.1813H63.0996L60.4249 13.5104L57.7985 10.1813H53.6835L58.6094 16.1917V19.8187Z" fill="white"/>
<path d="M67.8056 19.8187H74.2081C79.5698 19.8187 80.6953 17.3187 80.6953 15.1295V14.7409C80.6953 12.4741 79.3882 10.1813 74.196 10.1813H67.8056V19.8187ZM71.2429 12.7073H73.7966C76.7982 12.7073 77.1249 14.0933 77.1249 14.9352V15.013C77.1249 15.8549 76.7982 17.2668 73.7966 17.2668H71.2429V12.7073Z" fill="white"/>
<path d="M85.5585 12.5259H89.5041C90.279 12.5259 90.545 12.8886 90.545 13.342V13.3549C90.545 13.8212 90.267 14.1839 89.5041 14.1839H85.5585V12.5259ZM85.5585 16.5155H88.8505C90.206 16.5155 90.678 17.0855 90.678 18.1865V19.3135C90.678 19.5855 90.702 19.715 90.787 19.8187H94.297V19.7539C94.212 19.5855 94.127 19.3394 94.127 18.6658V17.2409C94.127 15.9974 93.389 15.2202 92.276 14.9482C92.953 14.7798 94.091 14.1969 94.091 12.7979V12.6554C94.091 11.0881 92.929 10.1813 90.303 10.1813H82.1212V19.8187H85.5585V16.5155Z" fill="white"/>
<path d="M101.902 10C96.069 10 95.331 12.9663 95.331 14.7798V15.1684C95.331 16.9689 96.069 20 101.902 20H102.447C108.269 20 109.007 16.9689 109.007 15.1684V14.7798C109.007 12.9663 108.257 10 102.447 10H101.902ZM105.449 15.0518C105.449 16.0881 104.831 17.3964 102.169 17.3964C99.506 17.3964 98.889 16.0363 98.889 15.0259V14.8705C98.889 13.8472 99.458 12.5907 102.169 12.5907C104.831 12.5907 105.449 13.8472 105.449 14.8705V15.0518Z" fill="white"/>
<path d="M116.52 20C119.328 20 120.454 18.899 120.805 18.4845C120.974 18.8342 121.168 19.5078 121.228 19.8187H123.395V14.3912H116.726V16.2694H119.885C119.885 16.5803 119.134 17.4741 116.811 17.4741C114.584 17.4741 113.724 16.2694 113.724 15.0389V14.8964C113.724 13.6269 114.414 12.513 116.835 12.513C119.377 12.513 119.691 13.4845 119.752 13.7306H123.334V13.7176C123.286 12.3705 122.535 10 117.016 10H116.544C111.231 10 110.166 12.7073 110.166 14.7798V15.1425C110.166 17.1762 111.316 20 116.242 20H116.52Z" fill="white"/>
<path d="M125.103 10.1813V19.8187H135.161V17.4093H128.492V16.0881H134.931V13.7435H128.492V12.5389H135.064V10.1813H125.103Z" fill="white"/>
<path d="M136.76 10.1813V19.8187H140.173V13.9767L145.813 19.8187H149.25V10.1813H145.837V15.6606L140.608 10.1813H136.76Z" fill="white"/>
</svg>
