<svg width="71" height="43" viewBox="0 0 71 43" fill="none" xmlns="http://www.w3.org/2000/svg">
<path d="M16.753 11.215H30.1443V12.2835H17.9805V20.3253H29.4189V21.3938H17.9805V30.2229H30.2838V31.2914H16.753V11.215ZM31.3439 11.215H32.7667L39.0718 20.0441L45.5163 11.215L54.2819 0L39.8808 20.972L47.3018 31.2914H45.8232L39.0718 21.8999L32.2924 31.2914H30.8417L38.3185 20.972L31.3439 11.215ZM47.8319 12.2835V11.215H63.0923V12.2835H56.0619V31.2914H54.8344V12.2835H47.8319ZM0 11.215H1.53441L22.6931 43L13.9492 31.2914L1.28333 12.7334L1.22753 31.2914H0L0 11.215ZM62.9686 29.9005C62.7178 29.9005 62.5298 29.7054 62.5298 29.4533C62.5298 29.2012 62.7178 29.0061 62.9686 29.0061C63.2224 29.0061 63.4075 29.2012 63.4075 29.4533C63.4075 29.7054 63.2224 29.9005 62.9686 29.9005ZM64.1748 28.724H64.8317C64.8406 29.0812 65.1004 29.3212 65.4825 29.3212C65.9095 29.3212 66.1513 29.0631 66.1513 28.58V25.5188H66.8201V28.583C66.8201 29.4533 66.3185 29.9545 65.4885 29.9545C64.7093 29.9545 64.1748 29.4683 64.1748 28.724ZM67.6949 28.685H68.3577C68.4144 29.0962 68.8145 29.3573 69.3907 29.3573C69.9282 29.3573 70.3223 29.0781 70.3223 28.694C70.3223 28.3639 70.0715 28.1658 69.5012 28.0308L68.9459 27.8957C68.1666 27.7126 67.8113 27.3345 67.8113 26.6982C67.8113 25.9269 68.4383 25.4137 69.3788 25.4137C70.2536 25.4137 70.8925 25.9269 70.9313 26.6562H70.2805C70.2178 26.2571 69.8714 26.008 69.3698 26.008C68.8414 26.008 68.4891 26.2631 68.4891 26.6532C68.4891 26.9623 68.716 27.1394 69.2773 27.2715L69.752 27.3885C70.6357 27.5956 71 27.9557 71 28.607C71 29.4353 70.3611 29.9545 69.34 29.9545C68.3846 29.9545 67.7427 29.4593 67.6949 28.685Z" fill="white"/>
</svg>
