<svg width="106" height="32" viewBox="0 0 106 32" fill="none" xmlns="http://www.w3.org/2000/svg">
<g clip-path="url(#clip0_12_22)">
<mask id="mask0_12_22" style="mask-type:luminance" maskUnits="userSpaceOnUse" x="0" y="0" width="106" height="32">
<path d="M106 0H0V31.5135H106V0Z" fill="white"/>
</mask>
<g mask="url(#mask0_12_22)">
<path d="M93.2891 31.2659C93.0148 31.2659 92.7591 31.1924 92.5217 31.0637L90.0916 29.6114C89.726 29.4091 89.909 29.3356 90.0186 29.2988C90.5117 29.1333 90.603 29.0965 91.1147 28.8024C91.1695 28.7657 91.2426 28.7841 91.2973 28.8209L93.1609 29.9423C93.2339 29.979 93.3252 29.979 93.38 29.9423L100.67 25.6955C100.743 25.6587 100.78 25.5852 100.78 25.4933V17.0182C100.78 16.9263 100.743 16.8528 100.67 16.816L93.38 12.5877C93.307 12.5509 93.2157 12.5509 93.1609 12.5877L85.8711 16.816C85.798 16.8528 85.7615 16.9446 85.7615 17.0182V25.4933C85.7615 25.5669 85.798 25.6587 85.8711 25.6955L87.8625 26.8537C88.9403 27.4052 89.6164 26.7618 89.6164 26.1183V17.7536C89.6164 17.6433 89.7077 17.533 89.836 17.533H90.7677C90.8773 17.533 90.9869 17.6249 90.9869 17.7536V26.1183C90.9869 27.5707 90.2012 28.4163 88.8308 28.4163C88.4107 28.4163 88.082 28.4163 87.1498 27.9568L85.2315 26.8537C84.7567 26.5779 84.4641 26.0632 84.4641 25.5116V17.0366C84.4641 16.485 84.7567 15.9703 85.2315 15.6945L92.5217 11.4479C92.9783 11.1905 93.5996 11.1905 94.0561 11.4479L101.346 15.6945C101.821 15.9703 102.113 16.485 102.113 17.0366V25.5116C102.113 26.0632 101.821 26.5779 101.346 26.8537L94.0561 31.1004C93.837 31.1924 93.563 31.2659 93.2891 31.2659Z" fill="white"/>
<path d="M95.5548 25.438C92.357 25.438 91.6991 23.9673 91.6991 22.7172C91.6991 22.6069 91.7904 22.4966 91.9183 22.4966H92.8683C92.9783 22.4966 93.0696 22.5701 93.0696 22.6804C93.2157 23.6547 93.6357 24.1328 95.5727 24.1328C97.1075 24.1328 97.7653 23.7835 97.7653 22.9562C97.7653 22.4783 97.5819 22.1289 95.1888 21.8899C93.1974 21.6876 91.9548 21.2464 91.9548 19.647C91.9548 18.158 93.1974 17.2755 95.2801 17.2755C97.6192 17.2755 98.7702 18.0844 98.9163 19.8493C98.9163 19.9045 98.898 19.9596 98.8619 20.0147C98.8246 20.0515 98.7702 20.0883 98.7146 20.0883H97.7463C97.6558 20.0883 97.5641 20.0147 97.5458 19.9228C97.3263 18.9117 96.7597 18.5808 95.2618 18.5808C93.5809 18.5808 93.38 19.169 93.38 19.6102C93.38 20.1434 93.6174 20.3089 95.8832 20.603C98.1302 20.8971 99.1902 21.32 99.1902 22.901C99.1902 24.5188 97.8563 25.438 95.5548 25.438Z" fill="white"/>
<path d="M106.079 16.54C106.079 17.3122 105.439 17.9557 104.672 17.9557C103.905 17.9557 103.265 17.3305 103.265 16.54C103.265 15.7312 103.923 15.1245 104.672 15.1245C105.421 15.1245 106.079 15.7495 106.079 16.54ZM103.485 16.54C103.485 17.2019 104.015 17.735 104.653 17.735C105.312 17.735 105.842 17.1835 105.842 16.54C105.842 15.8782 105.312 15.3635 104.653 15.3635C104.033 15.3635 103.485 15.8782 103.485 16.54ZM104.142 15.7495H104.691C104.873 15.7495 105.239 15.7495 105.239 16.1724C105.239 16.4665 105.056 16.5217 104.946 16.5584C105.166 16.5768 105.183 16.724 105.202 16.9261C105.22 17.0548 105.239 17.2754 105.275 17.349H104.946C104.946 17.2754 104.891 16.871 104.891 16.8526C104.873 16.7607 104.837 16.724 104.727 16.724H104.453V17.3673H104.142V15.7495ZM104.435 16.4482H104.672C104.873 16.4482 104.909 16.3011 104.909 16.2275C104.909 16.007 104.763 16.007 104.672 16.007H104.417V16.4482H104.435Z" fill="white"/>
<path fill-rule="evenodd" clip-rule="evenodd" d="M17.3386 16.6559C17.3386 16.325 17.156 16.0126 16.8636 15.8471L9.13521 11.3429C9.00734 11.2694 8.86116 11.2326 8.71499 11.2143C8.69672 11.2143 8.64194 11.2143 8.64194 11.2143C8.49576 11.2143 8.34958 11.2694 8.22171 11.3429L0.475031 15.8286C0.182705 15.9941 0 16.3067 0 16.6559L0.0182705 28.7159C0.0182705 28.8814 0.109623 29.0468 0.255787 29.1204C0.40195 29.2123 0.584655 29.2123 0.71255 29.1204L5.31671 26.4731C5.60903 26.3076 5.79173 25.9951 5.79173 25.6642V20.0202C5.79173 19.6893 5.97443 19.3768 6.26678 19.2114L8.22171 18.0715C8.36789 17.9796 8.53228 17.9428 8.69672 17.9428C8.86116 17.9428 9.0256 17.9796 9.15352 18.0715L11.1084 19.2114C11.4007 19.3768 11.5835 19.6893 11.5835 20.0202V25.6642C11.5835 25.9951 11.7662 26.3076 12.0585 26.4731L16.6262 29.1204C16.7723 29.2123 16.955 29.2123 17.1011 29.1204C17.2474 29.0468 17.3386 28.8814 17.3386 28.7159V16.6559Z" fill="white"/>
<path fill-rule="evenodd" clip-rule="evenodd" d="M54.5741 0.0551525C54.4276 -0.0183842 54.245 -0.0183842 54.1172 0.0551525C53.9711 0.147072 53.8798 0.294146 53.8798 0.459603V12.4093C53.8798 12.5196 53.825 12.6298 53.715 12.7035C53.6054 12.7586 53.4959 12.7586 53.3863 12.7035L51.4497 11.582C51.1575 11.4166 50.8101 11.4166 50.5179 11.582L42.7712 16.0861C42.479 16.2516 42.2964 16.5641 42.2964 16.895V25.8848C42.2964 26.2158 42.479 26.5283 42.7712 26.6938L50.5179 31.1979C50.8101 31.3633 51.1575 31.3633 51.4497 31.1979L59.1964 26.6938C59.4886 26.5283 59.6713 26.2158 59.6713 25.8848V3.4746C59.6713 3.1253 59.4886 2.81277 59.1964 2.64732L54.5741 0.0551525ZM53.8615 22.925C53.8615 23.0169 53.825 23.0904 53.7519 23.1272L51.1023 24.6716C51.0293 24.7083 50.938 24.7083 50.8649 24.6716L48.2157 23.1272C48.1427 23.0904 48.1061 22.9985 48.1061 22.925V19.8365C48.1061 19.7445 48.1427 19.671 48.2157 19.6343L50.8649 18.09C50.938 18.0532 51.0293 18.0532 51.1023 18.09L53.7519 19.6343C53.825 19.671 53.8615 19.763 53.8615 19.8365V22.925Z" fill="white"/>
<path fill-rule="evenodd" clip-rule="evenodd" d="M80.3528 19.7629C80.6454 19.5974 80.8097 19.285 80.8097 18.954V16.7662C80.8097 16.4354 80.6271 16.1228 80.3528 15.9574L72.6608 11.4717C72.3686 11.3062 72.0216 11.3062 71.7291 11.4717L63.9827 15.9757C63.6901 16.1412 63.5075 16.4538 63.5075 16.7847V25.7745C63.5075 26.1054 63.6901 26.418 63.9827 26.5834L71.6743 30.9956C71.9669 31.161 72.3138 31.161 72.5878 30.9956L77.247 28.3851C77.3931 28.3116 77.4844 28.1461 77.4844 27.9806C77.4844 27.8152 77.3931 27.6497 77.247 27.5761L69.4638 23.072C69.3177 22.9802 69.2263 22.8331 69.2263 22.6676V19.8549C69.2263 19.6894 69.3177 19.5239 69.4638 19.4504L71.8938 18.0532C72.0399 17.9613 72.2225 17.9613 72.3686 18.0532L74.7987 19.4504C74.9448 19.5423 75.0361 19.6894 75.0361 19.8549V22.0609C75.0361 22.2264 75.1274 22.3918 75.2739 22.4654C75.42 22.5573 75.6026 22.5573 75.7487 22.4654L80.3528 19.7629Z" fill="white"/>
<path fill-rule="evenodd" clip-rule="evenodd" d="M72.0764 19.3403C72.1312 19.3035 72.2047 19.3035 72.2595 19.3403L73.7391 20.2043C73.7939 20.2411 73.8304 20.2963 73.8304 20.3698V22.0979C73.8304 22.1714 73.7939 22.2266 73.7391 22.2634L72.2595 23.1274C72.2047 23.1642 72.1312 23.1642 72.0764 23.1274L70.5968 22.2634C70.542 22.2266 70.5055 22.1714 70.5055 22.0979V20.3698C70.5055 20.2963 70.542 20.2411 70.5968 20.2043L72.0764 19.3403Z" fill="white"/>
<path d="M30.2919 11.5084C29.9995 11.3431 29.6523 11.3431 29.36 11.5084L21.6681 15.9758C21.3758 16.1413 21.2114 16.4538 21.2114 16.7848V25.7378C21.2114 26.0688 21.3941 26.3812 21.6681 26.5467L29.36 31.0141C29.6523 31.1795 29.9995 31.1795 30.2919 31.0141L37.9837 26.5467C38.276 26.3812 38.4404 26.0688 38.4404 25.7378V16.7848C38.4404 16.4538 38.2577 16.1413 37.9837 15.9758L30.2919 11.5084Z" fill="white"/>
</g>
</g>
<defs>
<clipPath id="clip0_12_22">
<rect width="106" height="32" fill="white"/>
</clipPath>
</defs>
</svg>
