<svg width="97" height="29" viewBox="0 0 97 29" fill="none" xmlns="http://www.w3.org/2000/svg">
<g clip-path="url(#clip0_1_2)">
<path d="M38.5857 21.8895V6.54355H45.2024C47.1391 6.54355 48.5897 6.97836 49.5546 7.84798C50.5192 8.71025 51.0014 9.87583 51.0014 11.3447C51.0014 12.4554 50.7254 13.3981 50.1731 14.1727C49.6208 14.9473 48.7885 15.499 47.6767 15.8279C48.3467 16.7705 49.0023 17.7497 49.6429 18.7655C50.2836 19.7812 50.8984 20.8226 51.4875 21.8895H48.7813C48.2437 20.8518 47.6767 19.8397 47.0802 18.8532C46.4909 17.8667 45.9128 16.9642 45.3459 16.1457C45.3017 16.1457 45.2538 16.1457 45.2024 16.1457H40.9054V21.8895H38.5857ZM44.9815 8.68104H40.9054V14.0521H44.9815C46.2333 14.0521 47.1537 13.8329 47.743 13.3944C48.332 12.9487 48.6267 12.2727 48.6267 11.3666C48.6267 10.4604 48.332 9.78814 47.743 9.34969C47.1537 8.90391 46.2333 8.68104 44.9815 8.68104ZM58.36 22.1526C57.2995 22.1526 56.3679 21.9114 55.5652 21.4291C54.7699 20.9468 54.1476 20.2745 53.6985 19.4122C53.2567 18.5499 53.0358 17.5524 53.0358 16.4198C53.0358 15.2871 53.2567 14.2896 53.6985 13.4273C54.1476 12.5577 54.7699 11.8818 55.5652 11.3995C56.3679 10.9098 57.2995 10.665 58.36 10.665H58.603C59.5676 10.665 60.4145 10.9025 61.1436 11.3775C61.8798 11.8452 62.4542 12.5248 62.8667 13.4164C63.279 14.3006 63.4853 15.3675 63.4853 16.6171V17.2857H55.3222C55.4547 18.1845 55.7936 18.8934 56.3384 19.4122C56.8907 19.9237 57.6088 20.1795 58.4925 20.1795H58.7134C59.2436 20.1795 59.7518 20.0735 60.2378 19.8616C60.7238 19.6424 61.1324 19.3501 61.4638 18.9847L62.8225 20.4097C62.3216 20.9431 61.703 21.367 60.9668 21.6812C60.2378 21.9954 59.4497 22.1526 58.603 22.1526H58.36ZM58.2937 12.6381C57.5056 12.6381 56.8465 12.8975 56.3163 13.4164C55.7936 13.9279 55.4622 14.6294 55.3222 15.5209H61.2649C61.1987 14.7098 60.9298 14.0265 60.4587 13.4712C59.9948 12.9158 59.3466 12.6381 58.5146 12.6381H58.2937ZM69.0746 22.1087C67.9109 22.1087 67.0051 21.8128 66.3573 21.2208C65.7166 20.6216 65.3961 19.836 65.3961 18.8642C65.3961 17.8996 65.7571 17.0921 66.4786 16.4417C67.2077 15.7913 68.3676 15.4661 69.9583 15.4661H72.9628V15.4332C72.9628 13.5917 72.1084 12.671 70.4001 12.671C69.6857 12.671 69.0818 12.7988 68.5886 13.0546C68.1025 13.3104 67.7083 13.6685 67.4065 14.1288L65.8933 12.9121C66.3645 12.1887 66.983 11.6333 67.7491 11.246C68.5223 10.8587 69.3985 10.665 70.378 10.665H70.621C71.9758 10.665 73.0658 11.0523 73.8907 11.827C74.7152 12.6015 75.1278 13.7598 75.1278 15.3017V21.8895H73.007V20.1028C72.5798 20.7458 72.0312 21.2428 71.361 21.5935C70.6908 21.937 69.9287 22.1087 69.0746 22.1087ZM69.5606 20.1576C70.4148 20.1576 71.1254 19.9676 71.6924 19.5876C72.2593 19.2003 72.6828 18.6778 72.9628 18.0201V17.1871H70.0466C69.1776 17.1871 68.5553 17.3259 68.1797 17.6036C67.8116 17.874 67.6274 18.243 67.6274 18.7107C67.6274 19.6753 68.2718 20.1576 69.5606 20.1576ZM83.0107 22.1526C81.9503 22.1526 81.0115 21.9224 80.1941 21.462C79.3767 21.0016 78.736 20.3439 78.2721 19.4889C77.8153 18.6266 77.5872 17.6036 77.5872 16.4198C77.5872 15.2286 77.8153 14.2056 78.2721 13.3506C78.7285 12.4883 79.3618 11.827 80.172 11.3666C80.9894 10.8989 81.9356 10.665 83.0107 10.665H83.2537C84.1081 10.665 84.9143 10.8843 85.6729 11.3227C86.4387 11.7539 87.0572 12.3494 87.5286 13.1094L85.8164 14.2933C85.4999 13.7963 85.1206 13.409 84.6788 13.1314C84.2369 12.8464 83.736 12.7039 83.1765 12.7039H82.9556C81.9982 12.7039 81.2433 13.04 80.691 13.7123C80.1462 14.3773 79.8736 15.2761 79.8736 16.4088C79.8736 17.5342 80.1462 18.433 80.691 19.1053C81.2433 19.7776 81.9982 20.1137 82.9556 20.1137H83.1765C83.736 20.1137 84.2516 19.9895 84.7229 19.7411C85.1941 19.4926 85.5992 19.1601 85.938 18.7436L87.5286 20.0809C87.0352 20.7239 86.4129 21.2318 85.6617 21.6045C84.918 21.9699 84.1153 22.1526 83.2537 22.1526H83.0107ZM94.9233 22.032C93.6125 22.032 92.6149 21.7031 91.93 21.0455C91.2451 20.3878 90.9026 19.3757 90.9026 18.0092V12.8354H88.7376V10.9281H90.9026V7.66161H93.1118V10.9281H96.8344V12.8354H93.1118V17.7132C93.1118 18.5755 93.2923 19.1747 93.6532 19.5109C94.0138 19.847 94.5478 20.0151 95.2547 20.0151C95.5936 20.0151 95.8954 20.0005 96.1605 19.9713C96.4331 19.942 96.7128 19.9055 97 19.8616V21.7799C96.7053 21.8529 96.374 21.9114 96.0058 21.9553C95.6377 22.0064 95.2768 22.032 94.9233 22.032Z" fill="#F6F7F9"/>
<path d="M16.2203 11.4292C15.6091 11.4292 15.0117 11.6093 14.5036 11.9467C13.9954 12.2841 13.5994 12.7636 13.3655 13.3247C13.1316 13.8858 13.0704 14.5032 13.1896 15.0988C13.3089 15.6944 13.6032 16.2415 14.0353 16.671C14.4675 17.1004 15.0181 17.3928 15.6175 17.5113C16.2169 17.6298 16.8382 17.5689 17.4028 17.3366C17.9674 17.1042 18.45 16.7106 18.7896 16.2056C19.1291 15.7007 19.3103 15.107 19.3103 14.4998C19.3103 13.6854 18.9848 12.9044 18.4053 12.3286C17.8258 11.7527 17.0398 11.4292 16.2203 11.4292Z" fill="#F6F7F9"/>
<path d="M32.4407 14.4998C32.4407 12.0763 30.1814 9.95083 26.5845 8.55203C26.6326 8.23703 26.676 7.92544 26.7069 7.6195C27.0617 4.13729 26.2172 1.62401 24.3299 0.541362C22.2184 -0.669793 19.236 0.209288 16.2203 2.60658C13.2047 0.209288 10.2223 -0.669793 8.11073 0.541362C6.22354 1.62401 5.37893 4.13729 5.73371 7.6195C5.76461 7.92544 5.80696 8.23816 5.85617 8.55433C5.55633 8.66804 5.26219 8.78858 4.97952 8.91481C1.76818 10.3489 0 12.3345 0 14.4998C0 16.9232 2.25915 19.0487 5.85617 20.4475C5.80696 20.7625 5.76461 21.0741 5.73371 21.3801C5.37893 24.8623 6.22354 27.3755 8.11073 28.4582C8.7596 28.8237 9.49481 29.0105 10.2406 28.9996C12.0282 28.9996 14.1157 28.0646 16.2203 26.3929C18.3239 28.0646 20.4125 28.9996 22.2024 28.9996C22.9481 29.0105 23.6833 28.8235 24.3322 28.4582C26.2194 27.3755 27.0641 24.8623 26.7093 21.3801C26.6784 21.0741 26.6347 20.7625 26.5868 20.4475C30.1838 19.051 32.4431 16.9221 32.4431 14.4998H32.4407ZM22.1887 1.5353C22.6682 1.52381 23.1422 1.6392 23.562 1.86966C24.8724 2.62138 25.4607 4.66043 25.1745 7.46371C25.1551 7.65476 25.1322 7.8481 25.1048 8.04255C23.6091 7.59498 22.0775 7.27576 20.5269 7.08841C19.587 5.84684 18.5417 4.68755 17.4026 3.62327C19.1914 2.24948 20.8703 1.5353 22.1875 1.5353H22.1887ZM21.573 17.5703C20.9941 18.5686 20.3639 19.5365 19.6846 20.4703C18.5333 20.5878 17.3766 20.6462 16.2192 20.6454C15.0622 20.6462 13.9059 20.5877 12.7549 20.4703C12.0775 19.5365 11.4491 18.5686 10.8723 17.5703C10.2935 16.5748 9.7675 15.5499 9.29641 14.4998C9.7675 13.4497 10.2935 12.4248 10.8723 11.4292C11.4482 10.435 12.0747 9.47051 12.7492 8.53954C13.9023 8.41909 15.0609 8.35911 16.2203 8.35984C17.3774 8.35916 18.5336 8.41761 19.6846 8.53499C20.3615 9.4674 20.9902 10.4334 21.5684 11.4292C22.1467 12.425 22.6727 13.4499 23.1443 14.4998C22.6727 15.5497 22.1467 16.5745 21.5684 17.5703H21.573ZM23.9317 16.4331C24.2949 17.4173 24.5931 18.424 24.8243 19.4467C23.8208 19.7576 22.7977 20.0027 21.7618 20.1803C22.1555 19.5904 22.537 18.9767 22.9062 18.3391C23.2713 17.7091 23.6135 17.0733 23.9362 16.4376L23.9317 16.4331ZM16.2215 24.3857C15.4473 23.6758 14.7209 22.916 14.047 22.1113C14.7589 22.1545 15.4856 22.1795 16.2215 22.1795C16.9574 22.1795 17.6887 22.1545 18.4017 22.1113C17.7256 22.9159 16.9974 23.6757 16.2215 24.3857ZM10.68 20.178C9.64379 20.0012 8.62034 19.7569 7.61635 19.4467C7.84667 18.4256 8.14371 17.4204 8.50559 16.4376C8.82375 17.0733 9.16479 17.7091 9.53559 18.3391C9.90639 18.9691 10.2898 19.59 10.68 20.1803V20.178ZM8.50559 12.5608C8.14501 11.5816 7.84874 10.5803 7.61864 9.56304C8.62015 9.25253 9.64086 9.00673 10.6743 8.82725C10.2829 9.4152 9.89952 10.0248 9.52987 10.6605C9.16021 11.2962 8.8226 11.9239 8.49987 12.5608H8.50559ZM16.2146 4.61267C16.9908 5.32244 17.7191 6.08226 18.3948 6.88712C17.6829 6.84391 16.9562 6.81889 16.2146 6.81889C15.4791 6.81889 14.7543 6.84163 14.0402 6.88712C14.714 6.08245 15.4404 5.32265 16.2146 4.61267ZM22.904 10.6605C22.5332 10.0221 22.1498 9.40799 21.7538 8.81814C22.7924 8.99574 23.8182 9.24117 24.8243 9.55282C24.5935 10.5738 24.2964 11.579 23.9351 12.5619C23.6169 11.9262 23.2748 11.2905 22.9051 10.6616L22.904 10.6605ZM7.2707 7.46485C6.98116 4.6627 7.57286 2.62251 8.88212 1.8708C9.3021 1.6407 9.77599 1.52533 10.2554 1.53644C11.5727 1.53644 13.2516 2.25062 15.0404 3.62441C13.9005 4.68946 12.8545 5.84948 11.9138 7.09184C10.3636 7.28006 8.83221 7.5981 7.33594 8.04255C7.30962 7.8481 7.28558 7.65589 7.26727 7.46485H7.2707ZM1.54501 14.4998C1.54501 12.9963 3.03281 11.4713 5.61353 10.3147C5.78979 10.2389 5.96948 10.1631 6.15258 10.0873C6.51257 11.5965 7.00073 13.0726 7.61177 14.4998C6.99956 15.9298 6.51103 17.409 6.15143 18.9214C3.23537 17.7329 1.54501 16.0862 1.54501 14.4998ZM8.88212 27.1288C7.57286 26.3771 6.98116 24.3368 7.2707 21.5347C7.28901 21.3437 7.31305 21.1514 7.33937 20.9559C8.83508 21.4033 10.3666 21.7225 11.9172 21.91C12.8575 23.152 13.9027 24.312 15.0416 25.3774C12.5478 27.2915 10.2692 27.9225 8.88555 27.1288H8.88212ZM25.1734 21.5347C25.4595 24.338 24.8713 26.3771 23.5609 27.1288C22.1784 27.9249 19.8986 27.2915 17.406 25.3774C18.5445 24.312 19.5893 23.152 20.5292 21.91C22.0798 21.7227 23.6114 21.4034 25.107 20.9559C25.1345 21.1514 25.1574 21.3437 25.1768 21.5347H25.1734ZM26.2961 18.9191C25.9355 17.4076 25.4466 15.9292 24.8346 14.4998C25.4464 13.0696 25.9349 11.5904 26.295 10.0782C29.2054 11.2666 30.9004 12.9133 30.9004 14.4998C30.9004 16.0862 29.2099 17.7329 26.2938 18.9214" fill="#F6F7F9"/>
<path d="M16.2207 17.7264C17.9217 17.7264 19.3006 16.3124 19.3006 14.5682C19.3006 12.824 17.9217 11.4101 16.2207 11.4101C14.5197 11.4101 13.1408 12.824 13.1408 14.5682C13.1408 16.3124 14.5197 17.7264 16.2207 17.7264Z" fill="#F6F7F9"/>
<path d="M32.4415 14.4667C32.4415 12.0519 30.182 9.93174 26.5865 8.54065C27.1676 4.75576 26.4436 1.7554 24.331 0.547986C22.4444 -0.531225 19.8317 -0.00310153 16.9738 2.03668C16.7208 2.21655 16.4698 2.40791 16.2187 2.60691C15.9696 2.40791 15.7186 2.21655 15.4676 2.03668C12.6097 -0.00310153 9.99696 -0.533138 8.11033 0.547986C5.99972 1.7554 5.27558 4.75383 5.85875 8.53489C2.25931 9.92791 0 12.05 0 14.4667C0 16.8816 2.25931 19.0017 5.85489 20.3928C5.27366 24.1777 5.9978 27.1781 8.11033 28.3855C8.74951 28.751 9.47365 28.9327 10.2615 28.9327C11.7967 28.9327 13.579 28.2439 15.4676 26.8968C15.7205 26.7169 15.9716 26.5255 16.2226 26.3266C16.4717 26.5255 16.7227 26.7169 16.9738 26.8968C18.8623 28.2457 20.6447 28.9327 22.1798 28.9327C22.9677 28.9327 23.6918 28.751 24.331 28.3855C26.2177 27.3062 27.0614 24.7996 26.7082 21.3266C26.6773 21.0204 26.6366 20.7105 26.5865 20.3947C30.1841 19.0036 32.4415 16.8835 32.4415 14.4667ZM17.8775 3.27853C19.4841 2.13234 20.9788 1.53535 22.1798 1.53535C22.6993 1.53535 23.1628 1.64633 23.5586 1.87212C24.9412 2.6643 25.5321 4.93563 25.1092 8.03165C23.7189 7.60878 22.1798 7.2854 20.525 7.07872C19.5343 5.78713 18.4838 4.62182 17.4083 3.62679C17.5647 3.50817 17.7211 3.38952 17.8775 3.27853ZM8.88275 1.87212C9.27863 1.64633 9.74205 1.53535 10.2615 1.53535C11.4626 1.53535 12.9572 2.13044 14.5639 3.27853C14.7203 3.38952 14.8767 3.50624 15.0331 3.62679C13.9575 4.62182 12.909 5.7852 11.9183 7.07682C10.2654 7.28347 8.72441 7.60878 7.33408 8.02974C6.91116 4.93563 7.50014 2.6643 8.88275 1.87212ZM1.54483 14.4667C1.54483 12.8843 3.2364 11.2406 6.1542 10.0561C6.48055 11.4587 6.96716 12.9417 7.6102 14.4629C6.9633 15.986 6.47669 17.4709 6.15034 18.8754C3.2364 17.691 1.54483 16.0492 1.54483 14.4667ZM14.5639 25.6549C12.2621 27.2967 10.192 27.8094 8.88275 27.0614C7.50014 26.2692 6.90924 23.9978 7.33213 20.9018C8.72247 21.3247 10.2615 21.6481 11.9164 21.8547C12.907 23.1463 13.9575 24.3117 15.0331 25.3067C14.8767 25.4272 14.7203 25.5439 14.5639 25.6549ZM16.2207 24.3097C14.2897 22.557 12.4339 20.2148 10.8678 17.5283C10.4488 16.8108 9.60162 15.0071 9.25789 14.3087C8.98369 14.9593 8.71283 15.5561 8.5004 16.1913C8.67421 16.5109 9.34426 17.9722 9.52965 18.2918C9.89654 18.9213 10.2808 19.5337 10.6767 20.1268C9.56633 19.9336 8.53902 19.6848 7.6044 19.3921C8.13543 17.0155 9.19558 14.2754 10.8678 11.4051C11.2792 10.6991 12.1728 9.12253 12.6208 8.46812C11.914 8.55806 11.3465 8.52829 10.6822 8.66413C10.4891 8.97411 9.71504 10.3221 9.52965 10.6417C9.15888 11.2769 8.81903 11.9122 8.5004 12.5437C8.11419 11.4932 7.81874 10.4867 7.60828 9.53758C9.95062 8.8047 12.8761 8.34356 16.2207 8.34356C17.0568 8.34356 18.803 8.32676 19.5832 8.38225C19.1526 7.82158 18.7833 7.31409 18.3333 6.81277C17.9684 6.80128 16.5934 6.81277 16.2207 6.81277C15.483 6.81277 14.7608 6.83762 14.0521 6.87973C14.755 6.05118 15.483 5.29344 16.2207 4.62372C18.1498 6.37648 20.0075 8.71859 21.5735 11.4051C21.9848 12.1112 22.8735 13.7549 23.223 14.4667C23.4992 13.8161 23.7604 13.2228 23.9748 12.5837C23.8009 12.2622 23.0971 10.9574 22.9117 10.6397C22.5448 10.0102 22.1605 9.39788 21.7647 8.80663C22.875 8.99987 23.9023 9.24862 24.837 9.54141C24.3059 11.918 23.2458 14.6581 21.5735 17.5283C21.1622 18.2344 19.9916 19.8513 19.5436 20.5057C20.2504 20.4158 21.0158 20.2813 21.6801 20.1455C21.8732 19.8355 22.7263 18.6113 22.9117 18.2918C23.2805 17.6603 23.6204 17.0289 23.9351 16.3993C24.3098 17.4212 24.6072 18.4257 24.8234 19.3978C22.483 20.1307 19.5614 20.5899 16.2207 20.5899C15.3845 20.5899 13.4405 20.4809 12.6604 20.4254C13.091 20.9861 13.5548 21.5698 14.0047 22.0711C14.3697 22.0826 15.848 22.1207 16.2207 22.1207C16.9584 22.1207 17.6805 22.0958 18.3892 22.0537C17.6844 22.8823 16.9584 23.64 16.2207 24.3097ZM23.5586 27.0614C22.2494 27.8115 20.1774 27.2986 17.8775 25.6549C17.7211 25.5439 17.5647 25.4272 17.4083 25.3067C18.4838 24.3117 19.5324 23.1482 20.523 21.8566C22.1741 21.65 23.7112 21.3266 25.0996 20.9056C25.1266 21.0989 25.1536 21.2922 25.1729 21.4816C25.4568 24.2791 24.8679 26.3112 23.5586 27.0614ZM26.291 18.8773C25.9589 17.4537 25.4665 15.9707 24.8312 14.4725C25.478 12.9493 25.9647 11.4645 26.291 10.0599C29.2049 11.2444 30.8966 12.8843 30.8966 14.4667C30.8966 16.0492 29.207 17.691 26.291 18.8773Z" fill="#F6F7F9"/>
</g>
<defs>
<clipPath id="clip0_1_2">
<rect width="97" height="29" fill="white"/>
</clipPath>
</defs>
</svg>
