<svg width="88" height="32" viewBox="0 0 88 32" fill="none" xmlns="http://www.w3.org/2000/svg">
<path fill-rule="evenodd" clip-rule="evenodd" d="M24.301 25.4423C21.738 22.8853 20.3256 19.485 20.3256 15.8704V10.276C20.3256 10.1832 20.2887 10.0942 20.223 10.0286C20.1574 9.96305 20.0683 9.9262 19.9755 9.9262C19.8826 9.9262 19.7936 9.96305 19.7279 10.0286C19.6623 10.0942 19.6254 10.1832 19.6254 10.276C19.6254 13.8915 18.2147 17.2926 15.6521 19.8487L7.18833 28.2905C7.1523 28.3263 7.12453 28.3696 7.10696 28.4172C7.08938 28.4648 7.08243 28.5157 7.08659 28.5663C7.09046 28.6173 7.10556 28.6668 7.13079 28.7113C7.15602 28.7558 7.19077 28.7941 7.23255 28.8237C10.16 30.902 13.5975 32 17.1728 32C20.748 32 24.1868 30.902 27.1142 28.8237C27.156 28.7943 27.1906 28.7559 27.2154 28.7114C27.2402 28.6668 27.2547 28.6172 27.2576 28.5663C27.2628 28.516 27.2568 28.4652 27.24 28.4175C27.2231 28.3698 27.1959 28.3264 27.1602 28.2905L24.301 25.4423ZM9.11206 4.68498V0.350636C9.11241 0.289074 9.09643 0.228519 9.06576 0.175125C9.03509 0.121731 8.99081 0.0774018 8.93743 0.0466428C8.88405 0.0158837 8.82347 -0.000208385 8.76185 2.03744e-06C8.70023 0.00021246 8.63976 0.0167179 8.58659 0.0478408C3.29022 3.10667 0 8.786 0 14.8702C0 15.3574 0.0257585 15.879 0.0807099 16.4648C0.0944478 16.5986 0.183744 16.7136 0.311248 16.7625C0.349913 16.7745 0.390111 16.7808 0.430596 16.7813C0.522875 16.7813 0.611428 16.745 0.677019 16.6801L6.57743 10.7932C7.38341 9.99324 8.02242 9.0414 8.45744 7.99288C8.89246 6.94435 9.11482 5.81999 9.11163 4.68498H9.11206ZM25.7576 0.0478408C25.7045 0.0167845 25.644 0.000415991 25.5825 0.000415991C25.5209 0.000415991 25.4604 0.0167845 25.4073 0.0478408C25.3542 0.0786648 25.3101 0.122828 25.2794 0.175946C25.2487 0.229063 25.2324 0.289287 25.2322 0.350636V15.8704C25.2322 18.1769 26.135 20.3467 27.7698 21.9786L30.6268 24.8307C30.6927 24.8967 30.7821 24.9339 30.8754 24.9341C30.8849 24.9341 30.8952 24.9341 30.9055 24.9319C30.9562 24.9271 31.0054 24.9116 31.0498 24.8867C31.0942 24.8617 31.133 24.8278 31.1635 24.787C33.2448 21.8649 34.3451 18.4364 34.3451 14.8698C34.3451 8.786 31.0566 3.10667 25.7576 0.0478408ZM12.1829 16.3855L3.7191 24.8307C3.68655 24.8635 3.64783 24.8895 3.60516 24.9072C3.5625 24.925 3.51674 24.9341 3.47053 24.9341C3.46151 24.9341 3.45164 24.9341 3.44262 24.9319C3.39208 24.9274 3.34309 24.9122 3.29895 24.8872C3.25482 24.8622 3.21656 24.828 3.18675 24.787C2.71412 24.126 2.28918 23.4323 1.91514 22.7111C1.88112 22.6447 1.86903 22.5692 1.88059 22.4955C1.89216 22.4217 1.9268 22.3536 1.97954 22.3007L10.0475 14.2548C12.6092 11.6964 14.0199 8.29879 14.0199 4.68498C14.0231 4.59434 14.0614 4.50847 14.1267 4.44547C14.192 4.38247 14.2792 4.34726 14.37 4.34726C14.4608 4.34726 14.548 4.38247 14.6134 4.44547C14.6787 4.50847 14.7169 4.59434 14.7201 4.68498V10.276C14.7201 12.5834 13.8199 14.7536 12.1829 16.3855ZM54.5569 13.4592C54.5569 15.2519 53.4149 16.3928 52.1098 16.7187V16.8817L54.2306 19.6523V21.2821L54.0675 21.4451H53.0887L52.7624 21.2821L49.4997 17.0447L49.1734 16.8817H47.542L47.3789 17.0447V21.2821L47.2157 21.4451H45.2581L45.095 21.2821V10.1996L45.2581 10.0366H50.6416C52.9255 10.0366 54.5569 11.1775 54.5569 13.4592ZM52.273 13.4592C52.273 12.3183 51.6204 11.9924 50.6416 11.9924H47.542L47.3789 12.1553V14.763L47.542 14.926H50.6416C51.6204 14.926 52.273 14.6 52.273 13.4592ZM63.8557 17.3706C63.8557 19.9783 62.2243 21.608 59.7773 21.608C57.3302 21.608 55.6989 19.9783 55.6989 17.3706C55.6989 14.763 57.3302 13.1332 59.7773 13.1332C62.2243 13.1332 63.8557 14.763 63.8557 17.3706ZM61.5718 17.3706C61.5718 15.9038 60.9193 15.0889 59.7773 15.0889C58.6353 15.0889 57.9828 15.9038 57.9828 17.3706C57.9828 18.8374 58.6353 19.6523 59.7773 19.6523C60.9193 19.6523 61.5718 18.8374 61.5718 17.3706ZM72.9914 17.3706C72.9914 19.9783 71.36 21.608 68.913 21.608C66.4659 21.608 64.8345 19.9783 64.8345 17.3706C64.8345 14.763 66.4659 13.1332 68.913 13.1332C71.36 13.1332 72.9914 14.763 72.9914 17.3706ZM70.7075 17.3706C70.7075 15.9038 70.0549 15.0889 68.913 15.0889C67.771 15.0889 67.1185 15.9038 67.1185 17.3706C67.1185 18.8374 67.771 19.6523 68.913 19.6523C70.0549 19.6523 70.7075 18.8374 70.7075 17.3706ZM77.5592 15.4149V19.0004C77.5592 19.3264 77.7224 19.4893 78.0486 19.4893H79.5169L79.68 19.6523V21.2821L79.5169 21.4451H78.0486C76.5804 21.4451 75.2753 20.7932 75.2753 19.0004V15.4149L75.1122 15.2519H73.9702L73.8071 15.0889V13.4592L73.9702 13.2962H75.1122L75.2753 13.1332V11.6664L75.4384 11.5034H77.3961L77.5592 11.6664V13.1332L77.7224 13.2962H79.5169L79.68 13.4592V15.0889L79.5169 15.2519H77.7224L77.5592 15.4149ZM88 19.0004C88 20.3042 87.0212 21.608 84.411 21.608C82.1271 21.608 80.822 20.4672 80.822 18.8374L80.9851 18.6744H82.9428L83.1059 18.8374C83.1059 19.4893 83.5953 19.6523 84.411 19.6523C85.2267 19.6523 85.7161 19.4893 85.7161 19.0004C85.7161 18.3485 85.0635 18.3485 84.0847 18.1855C83.1059 18.0225 80.9851 17.5336 80.9851 15.5779C80.9851 14.2741 81.9639 13.1332 84.411 13.1332C86.3686 13.1332 87.8369 13.9481 87.8369 15.5779L87.6737 15.7409H85.7161L85.5529 15.5779C85.5529 15.2519 85.2267 15.0889 84.411 15.0889C83.5953 15.0889 83.269 15.2519 83.269 15.7409C83.269 16.3928 84.2479 16.3928 85.2267 16.5557C86.2055 16.7187 88 17.0447 88 19.0004Z" fill="white"/>
</svg>
