<svg width="112" height="32" viewBox="0 0 112 32" fill="none" xmlns="http://www.w3.org/2000/svg">
<g clip-path="url(#clip0_1032_6410)">
<mask id="mask0_1032_6410" style="mask-type:luminance" maskUnits="userSpaceOnUse" x="0" y="0" width="112" height="32">
<path d="M112 0H0V32H112V0Z" fill="white"/>
</mask>
<g mask="url(#mask0_1032_6410)">
<path d="M23.6403 5.68733C23.529 5.68733 21.3252 5.6429 21.3252 5.6429C21.3252 5.6429 19.4776 3.8657 19.2996 3.66576C19.2328 3.59912 19.1437 3.55469 19.0547 3.55469V30.8571L27.3132 28.8133C27.3132 28.8133 23.9519 6.08721 23.9296 5.9317C23.8851 5.7762 23.7516 5.68733 23.6403 5.68733Z" fill="#F1F1F1"/>
<path d="M12.1758 0.00195312C12.9549 -0.020262 13.6014 0.246134 14.1133 0.779297C14.1576 0.801584 14.1793 0.846353 14.2236 0.890625C14.3126 0.868431 14.3799 0.868164 14.4688 0.868164C15.6263 0.868164 16.6064 1.53428 17.252 2.77832C17.4522 3.17817 17.6072 3.55619 17.6963 3.86719C18.275 3.68947 18.6318 3.57812 18.6318 3.57812C18.7656 3.53372 19.1218 3.48937 19.2998 3.66699C19.4787 3.86766 21.3252 5.64453 21.3252 5.64453C21.3423 5.64488 23.5234 5.68836 23.6396 5.68848C23.7509 5.68848 23.8849 5.77735 23.9072 5.93262C23.9295 6.08812 27.2912 28.8145 27.3135 28.8145L19.0547 30.8584L0 27.5703C0.00854196 27.5044 2.27081 10.0431 2.31543 9.4209C2.42672 8.59899 2.44844 8.5761 3.31641 8.30957C3.36093 8.30957 4.56334 7.93258 6.27734 7.39941C6.47768 6.08874 7.1229 4.40003 7.96875 3.04492C9.19293 1.13461 10.6845 0.0465794 12.1758 0.00195312ZM14.4688 9.93164C14.4619 9.92815 13.6386 9.50956 12.0205 9.62012C7.83567 9.8867 5.94301 12.7975 6.12109 15.6855C6.34384 19.1283 9.77122 18.9954 9.90527 21.083C9.94978 21.5718 9.61618 22.3052 8.74805 22.3496C7.41245 22.4384 5.7207 21.1719 5.7207 21.1719L5.0752 23.9043C5.0752 23.9043 6.7451 25.682 9.77246 25.5264C12.3099 25.3707 14.0463 23.349 13.8682 20.3945C13.6232 16.6404 9.41598 16.285 9.30469 14.6855C9.30469 14.3967 9.30495 13.2195 11.1748 13.1084C12.434 13.0203 13.4959 13.5006 13.5117 13.5078L14.4688 9.93164ZM12.2207 1.00098C9.92805 1.06762 7.9025 4.66645 7.36816 7.08789C8.16947 6.84355 9.06007 6.57685 9.97266 6.28809C10.2621 4.75544 10.9961 3.17806 11.9531 2.15625C12.3093 1.75638 12.7107 1.44602 13.1113 1.24609C12.8665 1.06837 12.5769 1.00098 12.2207 1.00098ZM13.7568 2.02344C13.3339 2.20114 12.9556 2.51201 12.6885 2.80078C11.9762 3.57831 11.3975 4.73373 11.0859 5.91113C12.1765 5.57796 13.267 5.24456 14.2686 4.93359C14.2908 4.11172 14.2019 2.88981 13.7568 2.02344ZM14.8252 1.93457C15.1589 2.82312 15.2705 3.88929 15.2705 4.64453C15.8046 4.46684 16.2941 4.31101 16.7393 4.17773C16.5166 3.40018 15.9602 2.11229 14.8252 1.93457Z" fill="white"/>
<path d="M38.4871 17.5526C37.5299 17.0417 37.0402 16.5974 37.0402 15.9976C37.0402 15.2422 37.7303 14.7535 38.7987 14.7535C40.0453 14.7535 41.1583 15.2645 41.1583 15.2645L42.0264 12.5986C42.0264 12.5986 41.2251 11.9766 38.8655 11.9766C35.571 11.9766 33.2783 13.8649 33.2783 16.5085C33.2783 18.0191 34.3467 19.1521 35.7714 19.9741C36.9289 20.6183 37.3296 21.0848 37.3296 21.7735C37.3296 22.4844 36.7508 23.062 35.6823 23.062C34.1019 23.062 32.5882 22.24 32.5882 22.24L31.6533 24.9058C31.6533 24.9058 33.0334 25.8388 35.3707 25.8388C38.7542 25.8388 41.2028 24.1727 41.2028 21.1737C41.1806 19.552 39.9563 18.3968 38.4871 17.5526Z" fill="white"/>
<path d="M51.9769 11.9315C50.3074 11.9315 48.9941 12.7312 47.9924 13.9308L47.9479 13.9086L49.3948 6.35547H45.6329L41.96 25.5938H45.7219L46.9684 19.0181C47.4582 16.53 48.7492 14.9972 49.9513 14.9972C50.7972 14.9972 51.1311 15.5748 51.1311 16.3967C51.1311 16.9077 51.0865 17.5519 50.9752 18.0629L49.5506 25.5938H53.3125L54.7817 17.8185C54.9375 16.9965 55.0488 16.0191 55.0488 15.3526C55.0711 13.22 53.9581 11.9315 51.9769 11.9315Z" fill="white"/>
<path d="M63.5969 11.9297C59.0559 11.9297 56.0508 16.0173 56.0508 20.5714C56.0508 23.4816 57.8539 25.8364 61.2374 25.8364C65.6894 25.8364 68.6945 21.8599 68.6945 17.1947C68.7167 14.5067 67.1363 11.9297 63.5969 11.9297ZM61.7494 22.9707C60.4583 22.9707 59.924 21.8821 59.924 20.5048C59.924 18.3499 61.037 14.8399 63.085 14.8399C64.4206 14.8399 64.8658 15.9951 64.8658 17.1059C64.8658 19.4162 63.7305 22.9707 61.7494 22.9707Z" fill="white"/>
<path d="M78.3551 11.9297C75.8175 11.9297 74.3706 14.1735 74.3706 14.1735H74.3261L74.5487 12.1519H71.2097C71.0539 13.507 70.7422 15.5952 70.4528 17.1503L67.8262 30.9237H71.5881L72.6343 25.3477H72.7234C72.7234 25.3477 73.5025 25.8364 74.9271 25.8364C79.3568 25.8364 82.2506 21.3045 82.2506 16.7282C82.2506 14.1957 81.1154 11.9297 78.3551 11.9297ZM74.749 23.0151C73.7696 23.0151 73.1908 22.4597 73.1908 22.4597L73.8141 18.9497C74.2593 16.5949 75.4836 15.0399 76.7969 15.0399C77.9545 15.0399 78.3106 16.1062 78.3106 17.1059C78.3106 19.5495 76.8637 23.0151 74.749 23.0151Z" fill="white"/>
<path d="M87.6378 6.53125C86.4357 6.53125 85.4785 7.4865 85.4785 8.70833C85.4785 9.81909 86.1909 10.5966 87.2593 10.5966H87.3039C88.4836 10.5966 89.4853 9.79687 89.5076 8.41954C89.5076 7.331 88.773 6.53125 87.6378 6.53125Z" fill="white"/>
<path d="M82.3623 25.5713H86.1243L88.6842 12.2422H84.9L82.3623 25.5713Z" fill="white"/>
<path d="M98.278 12.2212H95.6513L95.7849 11.5991C96.0075 10.3107 96.7643 9.17774 98.0331 9.17774C98.7009 9.17774 99.2352 9.37767 99.2352 9.37767L99.9698 6.42306C99.9698 6.42306 99.3242 6.08984 97.9218 6.08984C96.5862 6.08984 95.2506 6.46749 94.2267 7.33388C92.9356 8.42242 92.3346 9.99969 92.0452 11.5991L91.9339 12.2212H90.1754L89.6189 15.0647H91.3774L89.374 25.5947H93.1359L95.1393 15.0647H97.7438L98.278 12.2212Z" fill="white"/>
<path d="M107.36 12.2422C107.36 12.2422 105 18.1737 103.954 21.4171H103.91C103.843 20.373 102.975 12.2422 102.975 12.2422H99.0122L101.283 24.4827C101.327 24.7493 101.305 24.927 101.194 25.1048C100.749 25.9489 100.014 26.7709 99.1458 27.3707C98.4334 27.8817 97.6321 28.2149 97.0088 28.437L98.055 31.636C98.8119 31.4805 100.415 30.8363 101.75 29.5922C103.464 27.9927 105.067 25.5046 106.692 22.1279L111.3 12.2422H107.36Z" fill="white"/>
</g>
</g>
<defs>
<clipPath id="clip0_1032_6410">
<rect width="112" height="32" fill="white"/>
</clipPath>
</defs>
</svg>
