<svg width="109" height="27" viewBox="0 0 109 27" fill="none" xmlns="http://www.w3.org/2000/svg">
<g clip-path="url(#clip0_1032_6448)">
<mask id="mask0_1032_6448" style="mask-type:luminance" maskUnits="userSpaceOnUse" x="0" y="0" width="109" height="27">
<path d="M109 0H0V27H109V0Z" fill="white"/>
</mask>
<g mask="url(#mask0_1032_6448)">
<path d="M105.138 3.87546C105.584 4.32356 106.112 4.5476 106.72 4.5476C107.347 4.5476 107.884 4.32356 108.33 3.87546C108.777 3.42738 109 2.89825 109 2.28809C109 1.67793 108.777 1.14405 108.33 0.686429C107.884 0.228807 107.347 0 106.72 0C106.112 0 105.584 0.228807 105.138 0.686429C104.691 1.14405 104.468 1.67793 104.468 2.28809C104.468 2.89825 104.691 3.42738 105.138 3.87546Z" fill="white"/>
<path d="M57.0508 9.7239C57.0508 9.77074 57.0129 9.80872 56.966 9.80872H53.8298V15.7577C53.8298 16.2535 53.9534 16.6157 54.2004 16.8446C54.4475 17.0734 54.8085 17.2021 55.2836 17.2307C55.7182 17.2569 56.2481 17.2552 56.8736 17.2254L56.8898 17.2246L56.9187 17.2233L56.9615 17.221C57.0101 17.2185 57.0508 17.2573 57.0508 17.3059V20.4869C57.0508 20.5301 57.0183 20.5664 56.9755 20.5711C56.9546 20.5734 56.9335 20.5757 56.9179 20.5773C54.4609 20.8402 52.7237 20.597 51.7062 19.8477C50.6705 19.085 50.1527 17.7217 50.1527 15.7577V9.80872H47.7577C47.7109 9.80872 47.6729 9.77074 47.6729 9.7239V6.34699C47.6729 6.30015 47.7109 6.26217 47.7577 6.26217H50.1527V3.90007C50.1527 3.83289 50.1925 3.77202 50.2539 3.74488L53.7107 2.21827C53.7668 2.1935 53.8298 2.23456 53.8298 2.29586V6.26217H56.966C57.0129 6.26217 57.0508 6.30015 57.0508 6.34699V9.7239Z" fill="white"/>
<path d="M63.7181 8.72507C64.0602 7.80982 64.6255 7.1234 65.4141 6.66577C66.1358 6.24698 66.9331 6.01982 67.806 5.98428C67.8482 5.98258 67.9129 5.98131 67.9651 5.98048C68.0123 5.97974 68.0508 6.01784 68.0508 6.06503V9.94599C68.0508 10.027 67.9804 10.0893 67.8997 10.082C66.8393 9.98584 65.8872 10.2199 65.0435 10.7843C64.1599 11.3754 63.7181 12.3574 63.7181 13.7302V20.4811C63.7181 20.5279 63.6801 20.5659 63.6333 20.5659H60.1258C60.079 20.5659 60.041 20.5279 60.041 20.4811V6.35019C60.041 6.30333 60.079 6.26535 60.1258 6.26535H63.6333C63.6801 6.26535 63.7181 6.30333 63.7181 6.35019V8.72507Z" fill="white"/>
<path fill-rule="evenodd" clip-rule="evenodd" d="M81.1049 6.26369C81.058 6.26369 81.02 6.30167 81.02 6.34852V7.95116C79.9178 6.55923 78.3692 5.86328 76.3738 5.86328C74.4734 5.86328 72.8441 6.59259 71.4852 8.05127C70.1265 9.50993 69.4473 11.2975 69.4473 13.414C69.4473 15.5305 70.1265 17.3181 71.4852 18.7768C72.8441 20.2354 74.4734 20.9648 76.3738 20.9648C78.3692 20.9648 79.9178 20.2688 81.02 18.8768V20.4796C81.02 20.5264 81.058 20.5643 81.1049 20.5643H84.6123C84.6591 20.5643 84.6971 20.5264 84.6971 20.4796V6.34852C84.6971 6.30167 84.6591 6.26369 84.6123 6.26369H81.1049ZM74.2356 16.3315C74.9768 17.0752 75.9175 17.447 77.0577 17.447C78.1979 17.447 79.1432 17.0704 79.8938 16.3173C80.6444 15.5641 81.0198 14.5965 81.0198 13.4142C81.0198 12.232 80.6444 11.2644 79.8938 10.5112C79.1432 9.75799 78.1979 9.38141 77.0577 9.38141C75.9175 9.38141 74.9768 9.75799 74.2356 10.5112C73.4946 11.2644 73.124 12.232 73.124 13.4142C73.124 14.5965 73.4946 15.5689 74.2356 16.3315Z" fill="white"/>
<path fill-rule="evenodd" clip-rule="evenodd" d="M100.668 8.05127C99.3092 6.59259 97.6701 5.86328 95.7509 5.86328C93.7556 5.86328 92.2163 6.55923 91.1331 7.95116V6.34852C91.1331 6.30167 91.0952 6.26369 91.0483 6.26369H87.5409C87.4941 6.26369 87.4561 6.30167 87.4561 6.34852V26.1997C87.4561 26.2466 87.4941 26.2846 87.5409 26.2846H91.0483C91.0952 26.2846 91.1331 26.2466 91.1331 26.1997V18.8768C92.2163 20.2688 93.7556 20.9648 95.7509 20.9648C97.6701 20.9648 99.3092 20.2354 100.668 18.7768C102.027 17.3181 102.706 15.5305 102.706 13.414C102.706 11.2975 102.027 9.50993 100.668 8.05127ZM92.2446 16.3315C92.9856 17.0752 93.9263 17.447 95.0665 17.447C96.2067 17.447 97.152 17.0704 97.9027 16.3173C98.6532 15.5641 99.0286 14.5965 99.0286 13.4142C99.0286 12.232 98.6532 11.2644 97.9027 10.5112C97.152 9.75799 96.2067 9.38141 95.0665 9.38141C93.9263 9.38141 92.9856 9.75799 92.2446 10.5112C91.5034 11.2644 91.1329 12.232 91.1329 13.4142C91.1329 14.5965 91.5034 15.5689 92.2446 16.3315Z" fill="white"/>
<path d="M104.981 20.5662C104.934 20.5662 104.896 20.5282 104.896 20.4814V6.35046C104.896 6.30361 104.934 6.26562 104.981 6.26562H108.488C108.535 6.26562 108.573 6.30361 108.573 6.35046V20.4814C108.573 20.5282 108.535 20.5662 108.488 20.5662H104.981Z" fill="white"/>
<path d="M39.3442 11.2546C38.8406 11.0162 38.5888 10.7064 38.5888 10.3251C38.5888 9.96278 38.7455 9.67678 39.0591 9.46703C39.3726 9.25729 39.767 9.15242 40.242 9.15242C41.153 9.15242 41.8412 9.50873 42.3065 10.2213C42.339 10.2711 42.4022 10.2912 42.4565 10.2671L45.5588 8.88993C45.605 8.86942 45.6232 8.81338 45.5974 8.76987C45.5633 8.71204 45.5182 8.63665 45.4883 8.58946C44.9565 7.7507 44.2686 7.12587 43.4061 6.64982C42.4559 6.12545 41.4013 5.86328 40.242 5.86328C38.7028 5.86328 37.4154 6.26846 36.3797 7.07883C35.344 7.8892 34.8262 8.99987 34.8262 10.4109C34.8262 11.3452 35.078 12.1222 35.5816 12.7418C36.0852 13.3616 36.698 13.8144 37.4201 14.1004C38.1422 14.3864 38.8644 14.6247 39.5865 14.8154C40.3085 15.0061 40.9214 15.2206 41.4251 15.459C41.9286 15.6973 42.1803 16.0072 42.1803 16.3885C42.1803 17.2084 41.5247 17.6184 40.2136 17.6184C38.9654 17.6184 38.1005 17.1555 37.6188 16.2299C37.5774 16.1503 37.4828 16.1139 37.4008 16.1504L34.3072 17.5258C34.2636 17.5451 34.2445 17.5967 34.2652 17.6397C34.2778 17.6656 34.291 17.6928 34.3006 17.7121C35.3818 19.8805 37.3527 20.9647 40.2136 20.9647C41.8478 20.9647 43.2113 20.5691 44.3039 19.7777C45.3966 18.9864 45.943 17.8567 45.943 16.3885C45.943 15.4161 45.6911 14.6056 45.1876 13.9574C44.684 13.3091 44.0712 12.8467 43.3491 12.5703C42.6269 12.2938 41.9048 12.065 41.1828 11.8838C40.4606 11.7027 39.8477 11.4929 39.3442 11.2546Z" fill="white"/>
<path d="M13.8646 12.543H13.6885V12.7191H13.8646V12.543Z" fill="#2F2F2F"/>
<path d="M17.2539 0C21.5697 0 23.7276 9.09532e-05 25.0684 1.34082C26.409 2.68157 26.4092 4.83958 26.4092 9.15527V17.2539C26.4092 21.5697 26.4091 23.7276 25.0684 25.0684C23.7276 26.4091 21.5697 26.4092 17.2539 26.4092H9.15527C4.83958 26.4092 2.68157 26.409 1.34082 25.0684C9.09532e-05 23.7276 0 21.5697 0 17.2539V9.15527C0 4.8395 9.0361e-05 2.68156 1.34082 1.34082C2.68156 9.0361e-05 4.8395 0 9.15527 0H17.2539ZM9.33105 8.01172L4.94824 12.3945C4.89287 12.45 4.93156 12.5447 5.00977 12.5449H9.33105V16.9004C9.33105 16.9976 9.40972 17.076 9.50684 17.0762H13.8643V21.3994C13.8644 21.4777 13.9592 21.5163 14.0146 21.4609L18.3965 17.0791H18.3984V8.1875C18.3983 8.09039 18.3188 8.01172 18.2217 8.01172H9.33105ZM13.8643 12.7188C13.8641 12.625 13.7909 12.55 13.6982 12.5449H13.8643V12.7188Z" fill="white"/>
</g>
</g>
<defs>
<clipPath id="clip0_1032_6448">
<rect width="109" height="27" fill="white"/>
</clipPath>
</defs>
</svg>
