<svg width="176" height="23" viewBox="0 0 176 23" fill="none" xmlns="http://www.w3.org/2000/svg">
<g clip-path="url(#clip0_13_63)">
<path fill-rule="evenodd" clip-rule="evenodd" d="M18.1838 0.735718C13.3348 0.735718 10.3041 3.16022 9.09188 8.00922C10.9103 5.58472 13.0317 4.67553 15.4562 5.28166C16.8395 5.62715 17.8282 6.6313 18.9226 7.74185C20.7052 9.55148 22.7688 11.646 27.2756 11.646C32.1246 11.646 35.1553 9.22147 36.3675 4.37247C34.5491 6.79697 32.4277 7.70616 30.0032 7.10003C28.6199 6.75454 27.6312 5.7504 26.5368 4.63984C24.7542 2.83022 22.6906 0.735718 18.1838 0.735718ZM9.09188 11.646C4.24288 11.646 1.21225 14.0705 0 18.9195C1.81838 16.495 3.93982 15.5858 6.36432 16.1919C7.74763 16.5381 8.73629 17.5416 9.83068 18.6521C11.6134 20.4617 13.6769 22.5562 18.1838 22.5562C23.0328 22.5562 26.0634 20.1317 27.2756 15.2827C25.4573 17.7072 23.3358 18.6164 20.9113 18.0103C19.528 17.6648 18.5394 16.6607 17.445 15.5501C15.6623 13.7405 13.5988 11.646 9.09188 11.646Z" fill="white"/>
<path fill-rule="evenodd" clip-rule="evenodd" d="M54.5486 9.92994H51.3752V16.072C51.3752 17.7099 52.4501 17.6843 54.5486 17.5819V20.0644C50.3004 20.5762 48.6113 19.399 48.6113 16.072V9.92994H46.2568V7.26835H48.6113V3.83095L51.3752 3.01201V7.26835H54.5486V9.92994ZM66.6455 7.26835H69.4095V20.0644H66.6455V18.2217C65.6731 19.5781 64.1631 20.3971 62.167 20.3971C58.6864 20.3971 55.7946 17.454 55.7946 13.6664C55.7946 9.85317 58.6864 6.93566 62.167 6.93566C64.1631 6.93566 65.6731 7.75463 66.6455 9.08541V7.26835ZM62.602 17.7611C64.9053 17.7611 66.6455 16.0464 66.6455 13.6664C66.6455 11.2863 64.9053 9.57166 62.602 9.57166C60.2987 9.57166 58.5585 11.2863 58.5585 13.6664C58.5585 16.0464 60.2987 17.7611 62.602 17.7611ZM74.016 5.34896C73.0435 5.34896 72.2502 4.53001 72.2502 3.58311C72.2509 3.11505 72.4374 2.66642 72.7681 2.33546C73.0994 2.00448 73.548 1.81815 74.016 1.81726C74.4841 1.81815 74.9326 2.00448 75.264 2.33546C75.5947 2.66642 75.7812 3.11505 75.7819 3.58311C75.7819 4.53001 74.9885 5.34896 74.016 5.34896ZM72.6341 20.0644V7.26835H75.398V20.0644H72.6341ZM78.597 20.0644V1.3822H81.3609V20.0644H78.597ZM99.3009 7.26835H102.218L98.2004 20.0644H95.4877L92.8261 11.4399L90.139 20.0644H87.4262L83.4083 7.26835H86.3258L88.8082 16.0976L91.4953 7.26835H94.1313L96.7929 16.0976L99.3009 7.26835ZM105.648 5.34896C104.675 5.34896 103.882 4.53001 103.882 3.58311C103.883 3.11505 104.069 2.66642 104.4 2.33546C104.731 2.00448 105.18 1.81815 105.648 1.81726C106.116 1.81815 106.564 2.00448 106.896 2.33546C107.226 2.66642 107.413 3.11505 107.414 3.58311C107.414 4.53001 106.62 5.34896 105.648 5.34896ZM104.266 20.0644V7.26835H107.03V20.0644H104.266ZM116.959 6.93566C119.826 6.93566 121.873 8.88067 121.873 12.2076V20.0644H119.109V12.4891C119.109 10.5442 117.983 9.52047 116.243 9.52047C114.426 9.52047 112.993 10.5953 112.993 13.2057V20.0644H110.229V7.26835H112.993V8.90627C113.837 7.57548 115.219 6.93566 116.959 6.93566ZM134.976 2.14996H137.74V20.0644H134.976V18.2217C134.004 19.5781 132.494 20.3971 130.497 20.3971C127.017 20.3971 124.125 17.454 124.125 13.6664C124.125 9.85317 127.017 6.93566 130.497 6.93566C132.494 6.93566 134.004 7.75463 134.976 9.08541V2.14996ZM130.933 17.7611C133.236 17.7611 134.976 16.0464 134.976 13.6664C134.976 11.2863 133.236 9.57166 130.933 9.57166C128.629 9.57166 126.889 11.2863 126.889 13.6664C126.889 16.0464 128.629 17.7611 130.933 17.7611ZM147.004 20.3971C143.14 20.3971 140.248 17.454 140.248 13.6664C140.248 9.85317 143.14 6.93566 147.004 6.93566C149.512 6.93566 151.688 8.24087 152.711 10.237L150.331 11.619C149.768 10.4162 148.514 9.64843 146.979 9.64843C144.727 9.64843 143.012 11.3631 143.012 13.6664C143.012 15.9696 144.727 17.6843 146.979 17.6843C148.514 17.6843 149.768 16.891 150.382 15.7137L152.763 17.0701C151.688 19.0919 149.512 20.3971 147.004 20.3971ZM157.318 10.8001C157.318 13.1289 164.202 11.7214 164.202 16.4559C164.202 19.0151 161.976 20.3971 159.212 20.3971C156.652 20.3971 154.81 19.2454 153.991 17.4028L156.371 16.0208C156.78 17.1725 157.804 17.8635 159.212 17.8635C160.44 17.8635 161.387 17.454 161.387 16.4303C161.387 14.1526 154.503 15.4322 154.503 10.8513C154.503 8.44561 156.576 6.93566 159.186 6.93566C161.285 6.93566 163.025 7.90818 163.921 9.59725L161.592 10.9024C161.131 9.90435 160.235 9.4437 159.186 9.4437C158.188 9.4437 157.318 9.87876 157.318 10.8001ZM169.116 10.8001C169.116 13.1289 176 11.7214 176 16.4559C176 19.0151 173.774 20.3971 171.01 20.3971C168.45 20.3971 166.608 19.2454 165.789 17.4028L168.169 16.0208C168.578 17.1725 169.602 17.8635 171.01 17.8635C172.238 17.8635 173.185 17.454 173.185 16.4303C173.185 14.1526 166.301 15.4322 166.301 10.8513C166.301 8.44561 168.374 6.93566 170.984 6.93566C173.083 6.93566 174.823 7.90818 175.719 9.59725L173.39 10.9024C172.929 9.90435 172.033 9.4437 170.984 9.4437C169.986 9.4437 169.116 9.87876 169.116 10.8001Z" fill="white"/>
</g>
<defs>
<clipPath id="clip0_13_63">
<rect width="176" height="23" fill="white"/>
</clipPath>
</defs>
</svg>
