<svg width="104" height="32" viewBox="0 0 104 32" fill="none" xmlns="http://www.w3.org/2000/svg">
<mask id="mask0_1032_6481" style="mask-type:luminance" maskUnits="userSpaceOnUse" x="0" y="0" width="104" height="32">
<path d="M103.256 0H0V31.3993H103.256V0Z" fill="white"/>
</mask>
<g mask="url(#mask0_1032_6481)">
<path d="M22.3147 0L18.1282 7.25127L13.9417 0H0L18.1282 31.3993L36.2564 0H22.3147Z" fill="white"/>
<path d="M22.3144 0L18.1279 7.25127L13.9414 0H7.25098L18.1279 18.8392L29.0048 0H22.3144Z" fill="white"/>
<path d="M45.1486 6.83203L48.6642 17.8832H48.7991L52.3219 6.83203H55.7309L50.7167 21.3775H46.7537L41.7324 6.83203H45.1486Z" fill="white"/>
<path d="M64.4206 16.733V10.4688H67.4461V21.3778H64.5413V19.3963H64.4277C64.1815 20.0355 63.7719 20.5492 63.199 20.9375C62.6308 21.3257 61.9372 21.5199 61.118 21.5199C60.3889 21.5199 59.7473 21.3541 59.1933 21.0227C58.6393 20.6913 58.2061 20.2202 57.8936 19.6094C57.5858 18.9986 57.4296 18.2671 57.4248 17.4149V10.4688H60.4504V16.875C60.4551 17.5189 60.628 18.028 60.9689 18.4021C61.3098 18.7761 61.7667 18.963 62.3396 18.963C62.7042 18.963 63.0451 18.8803 63.3623 18.7146C63.6796 18.5441 63.9353 18.2931 64.1294 17.9616C64.3282 17.6302 64.4253 17.2207 64.4206 16.733Z" fill="white"/>
<path d="M74.8377 21.5884C73.7156 21.5884 72.7497 21.3611 71.94 20.9066C71.1351 20.4473 70.5148 19.7986 70.0792 18.9605C69.6436 18.1177 69.4258 17.1211 69.4258 15.9705C69.4258 14.8483 69.6436 13.8635 70.0792 13.0159C70.5148 12.1684 71.128 11.5079 71.9187 11.0344C72.7142 10.5609 73.6469 10.3242 74.717 10.3242C75.4367 10.3242 76.1067 10.4402 76.7269 10.6722C77.3519 10.8995 77.8965 11.2427 78.3605 11.702C78.8292 12.1613 79.1938 12.739 79.4542 13.435C79.7146 14.1263 79.8448 14.9359 79.8448 15.864V16.6949H70.6332V14.8199H76.9968C76.9968 14.3843 76.9021 13.9984 76.7127 13.6623C76.5233 13.3261 76.2606 13.0633 75.9244 12.8739C75.5929 12.6798 75.2071 12.5827 74.7667 12.5827C74.3074 12.5827 73.9002 12.6892 73.5451 12.9023C73.1947 13.1106 72.9201 13.3924 72.7213 13.7475C72.5224 14.0979 72.4206 14.4885 72.4159 14.9194V16.702C72.4159 17.2418 72.5153 17.7082 72.7142 18.1012C72.9178 18.4942 73.2042 18.7972 73.5735 19.0103C73.9429 19.2233 74.3808 19.3299 74.8875 19.3299C75.2236 19.3299 75.5314 19.2825 75.8107 19.1878C76.0901 19.0931 76.3292 18.9511 76.5281 18.7617C76.7269 18.5723 76.8785 18.3403 76.9826 18.0657L79.7809 18.2503C79.6389 18.9227 79.3477 19.5098 78.9073 20.0117C78.4717 20.5088 77.9083 20.8971 77.217 21.1765C76.5304 21.4511 75.7374 21.5884 74.8377 21.5884Z" fill="white"/>
<path d="M83.5873 21.5629C83.1186 21.5629 82.7161 21.3972 82.38 21.0657C82.0485 20.7295 81.8828 20.3271 81.8828 19.8583C81.8828 19.3943 82.0485 18.9966 82.38 18.6652C82.7161 18.3337 83.1186 18.168 83.5873 18.168C84.0419 18.168 84.4396 18.3337 84.7805 18.6652C85.1214 18.9966 85.2919 19.3943 85.2919 19.8583C85.2919 20.1708 85.2114 20.4573 85.0504 20.7177C84.8942 20.9734 84.6882 21.1794 84.4325 21.3356C84.1768 21.4871 83.8951 21.5629 83.5873 21.5629Z" fill="white"/>
<path d="M87.7763 10.4673H90.8019V21.9162C90.8019 22.759 90.6362 23.4408 90.3047 23.9616C89.9733 24.4825 89.4974 24.8636 88.8772 25.1051C88.2616 25.3466 87.5254 25.4673 86.6684 25.4673C86.5642 25.4673 86.4647 25.465 86.3701 25.4602C86.2706 25.4602 86.1665 25.4579 86.0576 25.4531V23.0881C86.138 23.0928 86.2091 23.0952 86.2706 23.0952C86.3274 23.0999 86.389 23.1023 86.4553 23.1023C86.943 23.1023 87.2839 22.9981 87.478 22.7898C87.6769 22.5862 87.7763 22.2784 87.7763 21.8665V10.4673ZM89.282 9.06108C88.8369 9.06108 88.4534 8.91193 88.1314 8.61364C87.8094 8.31061 87.6485 7.94839 87.6485 7.52699C87.6485 7.11032 87.8094 6.75284 88.1314 6.45455C88.4534 6.15152 88.8369 6 89.282 6C89.7365 6 90.1224 6.15152 90.4397 6.45455C90.7616 6.75284 90.9226 7.11032 90.9226 7.52699C90.9226 7.94839 90.7616 8.31061 90.4397 8.61364C90.1224 8.91193 89.7365 9.06108 89.282 9.06108Z" fill="white"/>
<path d="M102.302 13.577L99.5319 13.7475C99.4846 13.5107 99.3828 13.2977 99.2265 13.1083C99.0703 12.9141 98.8643 12.7603 98.6086 12.6466C98.3577 12.5283 98.057 12.4691 97.7067 12.4691C97.2379 12.4691 96.8425 12.5685 96.5206 12.7674C96.1986 12.9615 96.0376 13.2219 96.0376 13.5486C96.0376 13.809 96.1418 14.0292 96.3501 14.2091C96.5585 14.3891 96.9159 14.5335 97.4226 14.6424L99.397 15.0401C100.458 15.2579 101.249 15.6083 101.77 16.0912C102.29 16.5742 102.551 17.2087 102.551 17.9946C102.551 18.7096 102.34 19.337 101.919 19.8767C101.502 20.4165 100.929 20.8379 100.2 21.1409C99.4751 21.4392 98.6394 21.5884 97.6925 21.5884C96.2483 21.5884 95.0978 21.2877 94.2407 20.6864C93.3885 20.0803 92.889 19.2565 92.7422 18.2148L95.718 18.0586C95.808 18.4989 96.0258 18.8351 96.3714 19.0671C96.7171 19.2944 97.1598 19.408 97.6996 19.408C98.2299 19.408 98.656 19.3062 98.978 19.1026C99.3047 18.8943 99.4704 18.6267 99.4751 18.3C99.4704 18.0254 99.3544 17.8005 99.1271 17.6253C98.8998 17.4454 98.5495 17.3081 98.076 17.2134L96.1868 16.837C95.1214 16.6239 94.3283 16.2546 93.8075 15.729C93.2914 15.2034 93.0334 14.5335 93.0334 13.7191C93.0334 13.0183 93.2228 12.4146 93.6015 11.908C93.9851 11.4014 94.5225 11.0107 95.2138 10.7361C95.9098 10.4615 96.7242 10.3242 97.6569 10.3242C99.0348 10.3242 100.119 10.6154 100.91 11.1978C101.706 11.7802 102.17 12.5732 102.302 13.577Z" fill="white"/>
</g>
</svg>
