<svg width="140" height="24" viewBox="0 0 140 24" fill="none" xmlns="http://www.w3.org/2000/svg">
<g clip-path="url(#clip0_13_66)">
<path fill-rule="evenodd" clip-rule="evenodd" d="M37.4129 0L25.4746 23.336H14.2624L19.2579 13.6646H19.033C14.9115 19.0152 8.76184 22.5369 0 23.336V13.7988C0 13.7988 5.60513 13.4673 8.89994 10.0028H0.00197336V0H10.0048V8.22717H10.2297L14.3176 0H21.8819V8.17587H22.1068L26.3486 0H37.4129Z" fill="white"/>
<path d="M102.508 20.7612H105.73V2.26886H102.508V20.7612Z" fill="white"/>
<path fill-rule="evenodd" clip-rule="evenodd" d="M84.7497 20.5719C85.4501 20.8639 86.1623 21.0079 86.8864 21.0079C88.082 21.0079 89.1514 20.7159 90.0964 20.1339C91.0395 19.5519 91.7714 18.7489 92.2923 17.7269C92.8111 16.6971 93.0716 15.5271 93.0716 14.223C93.0716 12.9169 92.8033 11.7489 92.2686 10.719C91.7339 9.68916 90.9901 8.89012 90.0372 8.32388C89.0862 7.74976 88.0031 7.46565 86.7917 7.47354C86.0203 7.47354 85.2804 7.62349 84.5741 7.92141C83.8658 8.22129 83.2759 8.64547 82.8044 9.19593C82.7689 9.23736 82.7334 9.28076 82.6979 9.32219V2.28076H79.4642V20.7613H82.6742L82.6683 19.035C82.7511 19.1376 82.8399 19.2362 82.9346 19.3329C83.4436 19.8597 84.0493 20.272 84.7497 20.5719ZM88.0524 17.5868C87.5256 17.9084 86.9239 18.0702 86.2472 18.0702C85.5783 18.0702 84.9648 17.9045 84.4064 17.575C83.8481 17.2357 83.4042 16.776 83.0727 16.194C82.7511 15.6119 82.5893 14.951 82.5893 14.2111C82.5815 13.4713 82.7393 12.8104 83.0609 12.2283C83.3904 11.6384 83.8362 11.1827 84.3946 10.8591C84.9529 10.5296 85.5705 10.3678 86.2472 10.3757C86.9239 10.3678 87.5256 10.5257 88.0524 10.8473C88.5871 11.161 88.9955 11.6148 89.2796 12.2047C89.5716 12.7867 89.7156 13.4555 89.7156 14.2111C89.7156 14.9668 89.5696 15.6356 89.2796 16.2176C88.9975 16.7996 88.5891 17.2554 88.0524 17.5868Z" fill="white"/>
<path d="M42.0809 3.38953H45.7624L49.0553 15.4186L52.5592 3.38953H55.6271L59.427 15.1759L62.5896 3.38953H65.9653L60.9856 20.7593H57.8112L53.9481 9.24522L50.4008 20.7593H47.1908L42.0809 3.38953Z" fill="white"/>
<path fill-rule="evenodd" clip-rule="evenodd" d="M71.4028 21.0671C70.1204 21.075 68.9642 20.7909 67.9324 20.2167C66.9104 19.6347 66.1034 18.8278 65.5135 17.7979C64.9315 16.7681 64.6395 15.5922 64.6395 14.2703C64.6395 12.9879 64.9394 11.8278 65.5372 10.79C66.135 9.75226 66.9459 8.94139 67.9679 8.35937C68.9899 7.77735 70.1322 7.48535 71.3909 7.48535C72.8075 7.48535 74.0465 7.79905 75.108 8.42842C76.1773 9.05779 76.9763 9.95153 77.5031 11.1077C78.0378 12.2559 78.2311 13.5739 78.0812 15.0614H67.9738C68.0014 15.6533 68.1494 16.1919 68.4177 16.6773C68.7176 17.212 69.1339 17.6283 69.6686 17.9281C70.2032 18.228 70.801 18.376 71.462 18.376C71.9651 18.3681 72.4327 18.2813 72.8667 18.1156C73.2988 17.9419 73.6657 17.7111 73.9637 17.4191C74.2714 17.1271 74.4865 16.7976 74.6127 16.4287H77.9885C77.7833 17.3343 77.3749 18.1392 76.7613 18.8475C76.1477 19.5479 75.3763 20.0944 74.449 20.487C73.5197 20.8816 72.5037 21.075 71.4028 21.0671ZM68.4295 11.816C68.2401 12.1454 68.1099 12.4986 68.0369 12.8774H74.737C74.6877 12.398 74.5398 11.962 74.2931 11.5674C74.009 11.1037 73.6243 10.7447 73.137 10.4941C72.6497 10.2337 72.0992 10.1054 71.4856 10.1054C70.8326 10.1054 70.2387 10.2554 69.7041 10.5533C69.1674 10.8512 68.7432 11.2734 68.4295 11.816Z" fill="white"/>
<path d="M95.4411 7.75564C95.4411 6.70209 95.6818 5.76494 96.1612 4.94617C96.6406 4.11951 97.3134 3.4783 98.1795 3.02255C99.0535 2.55891 100.072 2.31821 101.236 2.30243V5.16911C100.693 5.17701 100.229 5.29144 99.8427 5.51044C99.4659 5.72351 99.1739 6.03326 98.9687 6.44363C98.7813 6.82047 98.6787 7.25649 98.6649 7.75367H101.165V10.4803H98.6629V20.7593H95.4411V10.4803H93.3636V7.75367H95.4411V7.75564Z" fill="white"/>
<path fill-rule="evenodd" clip-rule="evenodd" d="M113.92 21.0434C112.606 21.0434 111.43 20.7554 110.392 20.1812C109.362 19.5992 108.551 18.7962 107.961 17.7742C107.379 16.7444 107.087 15.5764 107.087 14.2703C107.087 12.9563 107.379 11.7844 107.961 10.7545C108.551 9.71675 109.362 8.90981 110.392 8.33569C111.43 7.76156 112.606 7.47351 113.92 7.47351C115.242 7.47351 116.421 7.76156 117.459 8.33569C118.505 8.90981 119.32 9.7128 119.902 10.7427C120.484 11.7726 120.78 12.9484 120.787 14.2703C120.78 15.5764 120.484 16.7444 119.902 17.7742C119.327 18.7962 118.517 19.5992 117.471 20.1812C116.425 20.7573 115.242 21.0434 113.92 21.0434ZM113.92 18.082C114.612 18.082 115.226 17.9242 115.76 17.6105C116.295 17.2889 116.707 16.8391 116.999 16.2649C117.291 15.6829 117.435 15.018 117.435 14.2703C117.435 13.5147 117.289 12.8458 116.999 12.2638C116.707 11.6818 116.295 11.2339 115.76 10.9183C115.226 10.5967 114.612 10.4349 113.92 10.4349C113.235 10.4349 112.625 10.5967 112.091 10.9183C111.564 11.2339 111.154 11.6818 110.864 12.2638C110.572 12.8458 110.432 13.5147 110.439 14.2703C110.439 15.018 110.585 15.6829 110.875 16.2649C111.175 16.8391 111.584 17.2869 112.103 17.6105C112.629 17.9242 113.235 18.082 113.92 18.082Z" fill="white"/>
<path d="M124.27 7.75568H120.683L124.566 20.7593H127.705L130.258 12.4533L133.014 20.7593H136.105L140 7.75568H136.755L134.545 15.8507L132.104 7.75568H128.965L126.537 16.0282L124.27 7.75568Z" fill="white"/>
</g>
<defs>
<clipPath id="clip0_13_66">
<rect width="140" height="24" fill="white"/>
</clipPath>
</defs>
</svg>
