<svg width="31" height="31" viewBox="0 0 31 31" fill="none" xmlns="http://www.w3.org/2000/svg">
<path d="M15.0539 20.3868L10.5 23.1366C10.3662 23.2027 10.242 23.2294 10.1275 23.2169C10.0137 23.2035 9.90291 23.1642 9.79502 23.099C9.6863 23.0321 9.60434 22.9376 9.54914 22.8155C9.49394 22.6934 9.48893 22.56 9.53409 22.4153L10.7459 17.2593L6.73782 13.7844C6.62492 13.6924 6.55048 13.5824 6.51452 13.4544C6.47856 13.3265 6.48651 13.204 6.53836 13.0869C6.59021 12.9698 6.65921 12.8736 6.74535 12.7983C6.83233 12.7256 6.94941 12.6762 7.09661 12.6503L12.3856 12.1887L14.4479 7.30616C14.5048 7.16817 14.5868 7.06865 14.6938 7.00759C14.8009 6.94654 14.9209 6.91602 15.0539 6.91602C15.1868 6.91602 15.3073 6.94654 15.4152 7.00759C15.523 7.06865 15.6046 7.16817 15.6598 7.30616L17.7222 12.1887L23.0099 12.6503C23.1579 12.6754 23.2754 12.7252 23.3624 12.7996C23.4493 12.8732 23.5188 12.9689 23.5706 13.0869C23.6216 13.204 23.6292 13.3265 23.5932 13.4544C23.5572 13.5824 23.4828 13.6924 23.3699 13.7844L19.3618 17.2593L20.5736 22.4153C20.6205 22.5583 20.6159 22.6913 20.5598 22.8142C20.5038 22.9371 20.4214 23.0317 20.3127 23.0977C20.2056 23.1646 20.0948 23.2044 19.9803 23.2169C19.8665 23.2294 19.7427 23.2027 19.6089 23.1366L15.0539 20.3868Z" fill="#FBFBFB"/>
</svg>
