<svg width="247" height="164" viewBox="0 0 247 164" fill="none" xmlns="http://www.w3.org/2000/svg">
<g filter="url(#filter0_d_1_9)">
<path d="M206.55 53.0947C203.526 50.616 200.064 48.2427 196.178 45.9974C158.851 24.4454 95.9805 23.092 55.7642 42.9734C49.5429 46.0494 44.2287 49.4587 39.8215 53.0947H24.0001V81.8507C24.0001 91.9507 29.3522 102.08 40.1615 110.909C43.1855 113.388 46.6475 115.761 50.5334 118.007C87.8685 139.559 150.732 140.912 190.947 121.031C197.168 117.955 202.483 114.545 206.89 110.909C217.404 102.216 222.711 92.2 222.711 82.1533V53.0947H206.55Z" fill="#1C1C1C"/>
</g>
<path d="M190.951 92.124C150.732 112.009 87.8658 110.659 50.535 89.1053C13.2038 67.552 15.5449 33.9587 55.7631 14.0733C95.9818 -5.81199 158.848 -4.46134 196.179 17.092C233.51 38.6453 231.17 72.2387 190.951 92.124Z" fill="#414141"/>
<path d="M173.187 81.868C143.538 96.528 97.1925 95.532 69.672 79.6427C42.1517 63.7533 43.8772 38.9893 73.5268 24.3293C103.175 9.66934 149.52 10.6653 177.042 26.5547C204.562 42.444 202.836 67.208 173.187 81.868Z" fill="#212121"/>
<path d="M196.066 57.9053C194.29 49.98 187.982 42.272 177.04 35.9533C149.52 20.0573 103.179 19.0667 73.5298 33.7213C60.2996 40.256 52.6252 48.8187 50.6438 57.688C47.934 45.6653 55.6653 33.1627 73.5298 24.328C103.179 9.67333 149.52 10.664 177.04 26.5587C192.286 35.36 198.56 46.8827 196.066 57.9053Z" fill="#696969"/>
<defs>
<filter id="filter0_d_1_9" x="6.10352e-05" y="8.90452" width="246.711" height="154.195" filterUnits="userSpaceOnUse" color-interpolation-filters="sRGB">
<feFlood flood-opacity="0" result="BackgroundImageFix"/>
<feColorMatrix in="SourceAlpha" type="matrix" values="0 0 0 0 0 0 0 0 0 0 0 0 0 0 0 0 0 0 127 0" result="hardAlpha"/>
<feOffset dy="4"/>
<feGaussianBlur stdDeviation="12"/>
<feComposite in2="hardAlpha" operator="out"/>
<feColorMatrix type="matrix" values="0 0 0 0 1 0 0 0 0 1 0 0 0 0 1 0 0 0 0.25 0"/>
<feBlend mode="normal" in2="BackgroundImageFix" result="effect1_dropShadow_1_9"/>
<feBlend mode="normal" in="SourceGraphic" in2="effect1_dropShadow_1_9" result="shape"/>
</filter>
</defs>
</svg>
