<svg width="17" height="16" viewBox="0 0 17 16" fill="none" xmlns="http://www.w3.org/2000/svg">
<path d="M8.9665 0.52552C8.91873 0.373214 8.8236 0.240124 8.69497 0.145608C8.56633 0.0510933 8.4109 8.37633e-05 8.25128 1.03072e-07C8.09165 -8.35571e-05 7.93617 0.050763 7.80743 0.145143C7.6787 0.239524 7.58344 0.372514 7.5355 0.52477L5.8975 5.71477L0.75175 5.71102C0.591326 5.71065 0.435009 5.76172 0.305755 5.85674C0.176501 5.95177 0.0811223 6.08573 0.0336254 6.23897C-0.0138716 6.3922 -0.0109835 6.55662 0.0418655 6.70809C0.0947144 6.85956 0.194739 6.99009 0.32725 7.08052L4.45075 9.90202L2.9005 14.8108C2.85372 14.9606 2.85515 15.1214 2.90457 15.2704C2.95399 15.4194 3.04892 15.5491 3.17598 15.6413C3.30305 15.7335 3.45583 15.7835 3.61281 15.7842C3.76979 15.785 3.92306 15.7365 4.051 15.6455L8.251 12.641L12.4465 15.6463C12.5745 15.738 12.7281 15.7871 12.8855 15.7866C13.0429 15.7861 13.1962 15.7362 13.3236 15.6437C13.4511 15.5513 13.5462 15.4211 13.5955 15.2716C13.6449 15.1221 13.6459 14.9609 13.5985 14.8108L12.0483 9.90202L16.1748 7.08052C16.3073 6.99009 16.4073 6.85956 16.4601 6.70809C16.513 6.55662 16.5159 6.3922 16.4684 6.23897C16.4209 6.08573 16.3255 5.95177 16.1962 5.85674C16.067 5.76172 15.9107 5.71065 15.7502 5.71102L10.6008 5.71477L8.9665 0.52552Z" fill="#EDA800"/>
</svg>
