<svg width="894" height="430" viewBox="0 0 894 430" fill="none" xmlns="http://www.w3.org/2000/svg">
<path d="M200.101 10.2648C267.116 10.2648 326.078 45.1965 359.856 97.9613H371.745C336.712 39.3696 272.868 0 200.101 0C89.7273 0 0 90.3295 0 201.274C0 312.039 89.7273 402.326 200.101 402.326C256.539 402.326 307.539 378.732 343.904 340.894H329.56C295.632 372.674 250.096 392.087 200.101 392.087C95.2416 392.087 10.2204 306.672 10.2204 201.274C10.2204 95.8107 95.2416 10.2648 200.101 10.2648Z" fill="#EDA800"/>
<path d="M359.167 340.893C325.955 388.555 270.839 419.863 208.536 419.863C106.893 419.863 24.5538 336.958 24.5538 234.927C24.5538 132.716 106.893 49.9397 208.536 49.9397C256.102 49.9397 299.546 68.1306 332.216 97.9603H346.784C311.537 62.0153 262.558 39.693 208.536 39.693C101.514 39.693 14.3636 127.214 14.3636 234.927C14.3636 342.443 101.514 430 208.536 430C276.722 430 336.75 394.447 371.438 340.893H359.167Z" fill="#EDA800"/>
<path d="M271.283 162.203C271.283 163.435 270.671 164.051 269.445 164.051H213.013C212.523 164.051 212.278 164.297 212.278 164.79V214.865C212.278 215.358 212.523 215.604 213.013 215.604H251.615C252.84 215.604 253.453 216.22 253.453 217.452V222.441C253.453 223.673 252.84 224.289 251.615 224.289H213.013C212.523 224.289 212.278 224.535 212.278 225.028V275.288C212.278 275.781 212.523 276.027 213.013 276.027H269.445C270.671 276.027 271.283 276.643 271.283 277.875V282.864C271.283 284.096 270.671 284.712 269.445 284.712H204.374C203.148 284.712 202.536 284.096 202.536 282.864V157.214C202.536 155.982 203.148 155.366 204.374 155.366H269.445C270.671 155.366 271.283 155.982 271.283 157.214V162.203ZM362.008 157.214C362.008 155.982 362.621 155.366 363.846 155.366H369.912C371.138 155.366 371.75 155.982 371.75 157.214V282.864C371.75 284.096 371.138 284.712 369.912 284.712H363.295C362.192 284.712 361.456 284.281 361.089 283.419L308.333 177.355C308.088 177.108 307.843 177.047 307.598 177.17C307.475 177.17 307.414 177.355 307.414 177.724V282.864C307.414 284.096 306.801 284.712 305.576 284.712H299.51C298.285 284.712 297.672 284.096 297.672 282.864V157.214C297.672 155.982 298.285 155.366 299.51 155.366H306.127C307.23 155.366 307.966 155.797 308.333 156.659L361.089 262.354C361.334 262.6 361.518 262.723 361.64 262.723C361.885 262.6 362.008 262.354 362.008 261.984V157.214ZM437.186 286.19C426.402 286.19 417.701 282.988 411.084 276.582C404.589 270.053 401.342 261.491 401.342 250.897V188.996C401.342 178.402 404.589 169.902 411.084 163.496C417.701 157.091 426.402 153.888 437.186 153.888C448.093 153.888 456.793 157.091 463.288 163.496C469.906 169.902 473.214 178.34 473.214 188.811V190.474C473.214 191.09 473.031 191.583 472.663 191.952C472.295 192.322 471.866 192.507 471.376 192.507L465.31 192.876C464.085 192.876 463.472 192.26 463.472 191.029V188.442C463.472 180.681 461.021 174.46 456.119 169.779C451.34 164.974 445.029 162.572 437.186 162.572C429.343 162.572 423.032 164.974 418.253 169.779C413.474 174.46 411.084 180.681 411.084 188.442V251.452C411.084 259.336 413.474 265.68 418.253 270.484C423.032 275.165 429.343 277.506 437.186 277.506C445.152 277.506 451.524 275.165 456.303 270.484C461.082 265.68 463.472 259.336 463.472 251.452V249.234C463.472 248.002 464.085 247.387 465.31 247.387L471.376 247.756C472.602 247.756 473.214 248.372 473.214 249.604V251.082C473.214 261.676 469.906 270.176 463.288 276.582C456.793 282.988 448.093 286.19 437.186 286.19ZM503.435 284.712C502.21 284.712 501.597 284.096 501.597 282.864V157.214C501.597 155.982 502.21 155.366 503.435 155.366H509.501C510.727 155.366 511.34 155.982 511.34 157.214V282.864C511.34 284.096 510.727 284.712 509.501 284.712H503.435ZM608.464 284.712C607.484 284.712 606.81 284.219 606.442 283.234L582.362 224.659C582.24 224.289 581.994 224.104 581.627 224.104H555.157C554.667 224.104 554.422 224.351 554.422 224.843V282.864C554.422 284.096 553.809 284.712 552.584 284.712H546.518C545.292 284.712 544.679 284.096 544.679 282.864V157.214C544.679 155.982 545.292 155.366 546.518 155.366H583.833C593.269 155.366 600.866 158.569 606.626 164.974C612.508 171.38 615.449 179.757 615.449 190.105C615.449 198.728 613.366 205.996 609.199 211.909C605.033 217.698 599.334 221.456 592.104 223.18C591.614 223.427 591.492 223.735 591.737 224.104L616.184 282.495L616.368 283.234C616.368 284.219 615.817 284.712 614.714 284.712H608.464ZM555.157 164.051C554.667 164.051 554.422 164.297 554.422 164.79V215.235C554.422 215.728 554.667 215.974 555.157 215.974H582.913C589.776 215.974 595.291 213.633 599.457 208.952C603.624 204.148 605.707 197.865 605.707 190.105C605.707 182.344 603.562 176.061 599.273 171.257C595.107 166.453 589.653 164.051 582.913 164.051H555.157ZM673.061 286.19C662.277 286.19 653.576 282.988 646.959 276.582C640.464 270.053 637.216 261.491 637.216 250.897V188.996C637.216 178.402 640.464 169.902 646.959 163.496C653.576 157.091 662.277 153.888 673.061 153.888C683.967 153.888 692.668 157.091 699.163 163.496C705.78 169.902 709.089 178.34 709.089 188.811V190.474C709.089 191.09 708.905 191.583 708.537 191.952C708.17 192.322 707.741 192.507 707.251 192.507L701.185 192.876C699.959 192.876 699.347 192.26 699.347 191.029V188.442C699.347 180.681 696.896 174.46 691.994 169.779C687.215 164.974 680.904 162.572 673.061 162.572C665.218 162.572 658.907 164.974 654.127 169.779C649.348 174.46 646.959 180.681 646.959 188.442V251.452C646.959 259.336 649.348 265.68 654.127 270.484C658.907 275.165 665.218 277.506 673.061 277.506C681.026 277.506 687.398 275.165 692.178 270.484C696.957 265.68 699.347 259.336 699.347 251.452V249.234C699.347 248.002 699.959 247.387 701.185 247.387L707.251 247.756C708.476 247.756 709.089 248.372 709.089 249.604V251.082C709.089 261.676 705.78 270.176 699.163 276.582C692.668 282.988 683.967 286.19 673.061 286.19ZM739.312 284.712C738.086 284.712 737.473 284.096 737.473 282.864V157.214C737.473 155.982 738.086 155.366 739.312 155.366H745.377C746.603 155.366 747.216 155.982 747.216 157.214V275.288C747.216 275.781 747.461 276.027 747.951 276.027H802.361C803.586 276.027 804.199 276.643 804.199 277.875V282.864C804.199 284.096 803.586 284.712 802.361 284.712H739.312ZM894 162.203C894 163.435 893.387 164.051 892.162 164.051H835.73C835.24 164.051 834.995 164.297 834.995 164.79V214.865C834.995 215.358 835.24 215.604 835.73 215.604H874.331C875.557 215.604 876.17 216.22 876.17 217.452V222.441C876.17 223.673 875.557 224.289 874.331 224.289H835.73C835.24 224.289 834.995 224.535 834.995 225.028V275.288C834.995 275.781 835.24 276.027 835.73 276.027H892.162C893.387 276.027 894 276.643 894 277.875V282.864C894 284.096 893.387 284.712 892.162 284.712H827.09C825.865 284.712 825.252 284.096 825.252 282.864V157.214C825.252 155.982 825.865 155.366 827.09 155.366H892.162C893.387 155.366 894 155.982 894 157.214V162.203Z" fill="white"/>
<path d="M414.322 341.924C414.756 341.924 414.973 342.142 414.973 342.578V346.766C414.973 347.202 414.756 347.421 414.322 347.421H403.84C403.667 347.421 403.58 347.509 403.58 347.683V387.079C403.58 387.515 403.362 387.734 402.929 387.734H397.981C397.548 387.734 397.33 387.515 397.33 387.079V347.683C397.33 347.509 397.243 347.421 397.07 347.421H387.044C386.61 347.421 386.393 347.202 386.393 346.766V342.578C386.393 342.142 386.61 341.924 387.044 341.924H414.322ZM458.451 346.7C458.451 347.137 458.233 347.355 457.8 347.355H438.92C438.746 347.355 438.66 347.442 438.66 347.616V361.752C438.66 361.928 438.746 362.014 438.92 362.014H451.354C451.787 362.014 452.005 362.233 452.005 362.668V366.792C452.005 367.228 451.787 367.446 451.354 367.446H438.92C438.746 367.446 438.66 367.534 438.66 367.708V382.039C438.66 382.215 438.746 382.301 438.92 382.301H457.8C458.233 382.301 458.451 382.52 458.451 382.956V387.079C458.451 387.515 458.233 387.734 457.8 387.734H433.061C432.626 387.734 432.41 387.515 432.41 387.079V342.578C432.41 342.142 432.626 341.924 433.061 341.924H457.8C458.233 341.924 458.451 342.142 458.451 342.578V346.7ZM489.22 388.257C486.486 388.257 484.055 387.712 481.929 386.62C479.846 385.487 478.219 383.916 477.047 381.909C475.918 379.859 475.354 377.503 475.354 374.841V354.75C475.354 350.693 476.612 347.464 479.13 345.065C481.69 342.621 485.054 341.4 489.22 341.4C493.387 341.4 496.729 342.6 499.246 344.999C501.763 347.399 503.022 350.584 503.022 354.553V355.077C503.022 355.296 502.958 355.47 502.827 355.6C502.697 355.731 502.544 355.798 502.371 355.798L497.423 356.059C496.99 356.059 496.772 355.841 496.772 355.405V354.422C496.772 352.154 496.078 350.322 494.689 348.925C493.3 347.53 491.477 346.833 489.22 346.833C486.964 346.833 485.12 347.53 483.687 348.925C482.298 350.322 481.604 352.154 481.604 354.422V375.233C481.604 377.503 482.298 379.335 483.687 380.731C485.12 382.127 486.964 382.825 489.22 382.825C491.477 382.825 493.3 382.127 494.689 380.731C496.078 379.335 496.772 377.503 496.772 375.233V374.317C496.772 373.881 496.99 373.663 497.423 373.663L502.371 373.924C502.804 373.924 503.022 374.143 503.022 374.579V375.038C503.022 377.656 502.437 379.968 501.265 381.975C500.136 383.981 498.531 385.53 496.447 386.62C494.364 387.712 491.955 388.257 489.22 388.257ZM542.492 342.578C542.492 342.142 542.708 341.924 543.143 341.924H548.091C548.524 341.924 548.742 342.142 548.742 342.578V387.079C548.742 387.515 548.524 387.734 548.091 387.734H543.143C542.708 387.734 542.492 387.515 542.492 387.079V367.708C542.492 367.534 542.405 367.446 542.232 367.446H528.04C527.865 367.446 527.779 367.534 527.779 367.708V387.079C527.779 387.515 527.562 387.734 527.128 387.734H522.18C521.745 387.734 521.529 387.515 521.529 387.079V342.578C521.529 342.142 521.745 341.924 522.18 341.924H527.128C527.562 341.924 527.779 342.142 527.779 342.578V361.752C527.779 361.928 527.865 362.014 528.04 362.014H542.232C542.405 362.014 542.492 361.928 542.492 361.752V342.578ZM590.904 342.578C590.904 342.142 591.121 341.924 591.555 341.924H596.502C596.937 341.924 597.153 342.142 597.153 342.578V387.079C597.153 387.515 596.937 387.734 596.502 387.734H591.294C590.904 387.734 590.643 387.581 590.513 387.275L574.824 355.536C574.737 355.448 574.651 355.405 574.564 355.405C574.521 355.405 574.498 355.47 574.498 355.6L574.564 387.079C574.564 387.515 574.346 387.734 573.913 387.734H568.965C568.531 387.734 568.314 387.515 568.314 387.079V342.578C568.314 342.142 568.531 341.924 568.965 341.924H574.173C574.564 341.924 574.824 342.076 574.954 342.381L590.579 374.122C590.666 374.209 590.73 374.252 590.773 374.252C590.861 374.252 590.904 374.186 590.904 374.055V342.578ZM629.96 388.323C627.181 388.323 624.731 387.755 622.603 386.62C620.52 385.442 618.893 383.807 617.721 381.713C616.549 379.619 615.962 377.197 615.962 374.448V355.208C615.962 352.504 616.549 350.103 617.721 348.009C618.893 345.915 620.52 344.301 622.603 343.166C624.731 341.988 627.181 341.4 629.96 341.4C632.737 341.4 635.19 341.988 637.316 343.166C639.444 344.301 641.092 345.915 642.264 348.009C643.436 350.103 644.022 352.504 644.022 355.208V374.448C644.022 377.197 643.436 379.619 642.264 381.713C641.092 383.807 639.444 385.442 637.316 386.62C635.19 387.755 632.737 388.323 629.96 388.323ZM629.96 382.825C632.304 382.825 634.191 382.084 635.623 380.6C637.056 379.117 637.772 377.153 637.772 374.71V355.077C637.772 352.635 637.056 350.65 635.623 349.122C634.191 347.595 632.304 346.833 629.96 346.833C627.659 346.833 625.794 347.595 624.361 349.122C622.929 350.65 622.212 352.635 622.212 355.077V374.71C622.212 377.11 622.929 379.074 624.361 380.6C625.794 382.084 627.659 382.825 629.96 382.825ZM663.551 387.734C663.118 387.734 662.9 387.515 662.9 387.079V342.578C662.9 342.142 663.118 341.924 663.551 341.924H668.499C668.934 341.924 669.15 342.142 669.15 342.578V382.039C669.15 382.215 669.237 382.301 669.41 382.301H687.899C688.334 382.301 688.55 382.52 688.55 382.956V387.079C688.55 387.515 688.334 387.734 687.899 387.734H663.551ZM717.871 388.323C715.094 388.323 712.641 387.755 710.515 386.62C708.432 385.442 706.803 383.807 705.632 381.713C704.46 379.619 703.875 377.197 703.875 374.448V355.208C703.875 352.504 704.46 350.103 705.632 348.009C706.803 345.915 708.432 344.301 710.515 343.166C712.641 341.988 715.094 341.4 717.871 341.4C720.65 341.4 723.102 341.988 725.228 343.166C727.354 344.301 729.004 345.915 730.176 348.009C731.348 350.103 731.933 352.504 731.933 355.208V374.448C731.933 377.197 731.348 379.619 730.176 381.713C729.004 383.807 727.354 385.442 725.228 386.62C723.102 387.755 720.65 388.323 717.871 388.323ZM717.871 382.825C720.215 382.825 722.103 382.084 723.536 380.6C724.968 379.117 725.683 377.153 725.683 374.71V355.077C725.683 352.635 724.968 350.65 723.536 349.122C722.103 347.595 720.215 346.833 717.871 346.833C715.572 346.833 713.704 347.595 712.272 349.122C710.84 350.65 710.124 352.635 710.124 355.077V374.71C710.124 377.11 710.84 379.074 712.272 380.6C713.704 382.084 715.572 382.825 717.871 382.825ZM763.508 388.257C759.384 388.257 756.064 387.058 753.547 384.657C751.03 382.215 749.771 379.007 749.771 375.038V354.62C749.771 350.65 751.03 347.464 753.547 345.065C756.064 342.621 759.384 341.4 763.508 341.4C766.242 341.4 768.65 341.945 770.734 343.035C772.817 344.082 774.422 345.588 775.551 347.552C776.723 349.515 777.31 351.74 777.31 354.227V355.993C777.31 356.43 777.092 356.648 776.659 356.648H771.711C771.276 356.648 771.06 356.43 771.06 355.993V354.227C771.06 352.045 770.365 350.279 768.977 348.925C767.63 347.53 765.807 346.833 763.508 346.833C761.25 346.833 759.427 347.552 758.04 348.991C756.65 350.388 755.956 352.221 755.956 354.489V375.169C755.956 377.437 756.65 379.291 758.04 380.731C759.472 382.127 761.338 382.825 763.638 382.825C765.895 382.825 767.696 382.17 769.041 380.861C770.386 379.553 771.06 377.786 771.06 375.561V369.474C771.06 369.3 770.973 369.213 770.8 369.213H763.963C763.53 369.213 763.312 368.995 763.312 368.558V364.501C763.312 364.065 763.53 363.846 763.963 363.846H776.659C777.092 363.846 777.31 364.065 777.31 364.501V374.71C777.31 378.943 776.051 382.258 773.534 384.657C771.06 387.058 767.718 388.257 763.508 388.257ZM796.85 387.734C796.416 387.734 796.198 387.515 796.198 387.079V342.578C796.198 342.142 796.416 341.924 796.85 341.924H801.797C802.232 341.924 802.448 342.142 802.448 342.578V387.079C802.448 387.515 802.232 387.734 801.797 387.734H796.85ZM848.426 346.7C848.426 347.137 848.208 347.355 847.775 347.355H828.895C828.722 347.355 828.635 347.442 828.635 347.616V361.752C828.635 361.928 828.722 362.014 828.895 362.014H841.33C841.764 362.014 841.981 362.233 841.981 362.668V366.792C841.981 367.228 841.764 367.446 841.33 367.446H828.895C828.722 367.446 828.635 367.534 828.635 367.708V382.039C828.635 382.215 828.722 382.301 828.895 382.301H847.775C848.208 382.301 848.426 382.52 848.426 382.956V387.079C848.426 387.515 848.208 387.734 847.775 387.734H823.036C822.602 387.734 822.385 387.515 822.385 387.079V342.578C822.385 342.142 822.602 341.924 823.036 341.924H847.775C848.208 341.924 848.426 342.142 848.426 342.578V346.7ZM878.415 388.257C875.637 388.257 873.186 387.755 871.058 386.751C868.975 385.704 867.348 384.264 866.176 382.432C865.047 380.6 864.484 378.462 864.484 376.019V374.252C864.484 373.817 864.7 373.598 865.135 373.598H869.952C870.386 373.598 870.603 373.817 870.603 374.252V375.692C870.603 377.83 871.319 379.553 872.751 380.861C874.227 382.17 876.202 382.825 878.676 382.825C880.889 382.825 882.625 382.237 883.884 381.059C885.186 379.837 885.837 378.244 885.837 376.28C885.837 374.972 885.511 373.838 884.86 372.877C884.209 371.918 883.254 371.023 881.995 370.195C880.781 369.367 879.001 368.319 876.657 367.054C874.01 365.657 871.884 364.414 870.277 363.323C868.715 362.232 867.412 360.859 866.371 359.201C865.329 357.542 864.808 355.536 864.808 353.18C864.808 349.515 866.002 346.635 868.39 344.541C870.776 342.447 873.944 341.4 877.895 341.4C880.629 341.4 883.037 341.924 885.12 342.971C887.203 344.018 888.81 345.501 889.938 347.421C891.11 349.296 891.696 351.478 891.696 353.965V355.47C891.696 355.907 891.479 356.124 891.045 356.124H886.162C885.728 356.124 885.511 355.907 885.511 355.47V354.096C885.511 351.959 884.817 350.213 883.428 348.861C882.04 347.509 880.151 346.833 877.764 346.833C875.637 346.833 873.967 347.378 872.751 348.468C871.579 349.558 870.994 351.107 870.994 353.114C870.994 354.422 871.276 355.536 871.839 356.452C872.447 357.368 873.359 358.241 874.574 359.07C875.79 359.855 877.59 360.859 879.978 362.08C882.973 363.782 885.229 365.178 886.748 366.268C888.311 367.359 889.569 368.689 890.524 370.26C891.522 371.83 892.021 373.729 892.021 375.954C892.021 379.707 890.785 382.694 888.311 384.919C885.88 387.144 882.582 388.257 878.415 388.257Z" fill="white"/>
</svg>
